<?xml version="1.0" encoding="UTF-8"?>
<svg xmlns="http://www.w3.org/2000/svg" xmlns:xlink="http://www.w3.org/1999/xlink" width="400px" height="400px" viewBox="0 0 400 400" version="1.1">
<defs>
<clipPath id="clip1">
  <path d="M 89.601562 165.632812 L 121 165.632812 L 121 195.808594 L 89.601562 195.808594 Z M 89.601562 165.632812 "/>
</clipPath>
<clipPath id="clip2">
  <path d="M 93.617188 165.695312 L 116.984375 165.695312 C 118.046875 165.695312 119.0625 166.117188 119.8125 166.867188 C 120.5625 167.617188 120.984375 168.632812 120.984375 169.695312 L 120.984375 191.808594 C 120.984375 192.871094 120.5625 193.886719 119.8125 194.636719 C 119.0625 195.386719 118.046875 195.808594 116.984375 195.808594 L 93.617188 195.808594 C 92.558594 195.808594 91.542969 195.386719 90.792969 194.636719 C 90.042969 193.886719 89.617188 192.871094 89.617188 191.808594 L 89.617188 169.695312 C 89.617188 168.632812 90.042969 167.617188 90.792969 166.867188 C 91.542969 166.117188 92.558594 165.695312 93.617188 165.695312 Z M 93.617188 165.695312 "/>
</clipPath>
<clipPath id="clip3">
  <path d="M 93.617188 165.695312 L 116.984375 165.695312 C 118.046875 165.695312 119.0625 166.117188 119.8125 166.867188 C 120.5625 167.617188 120.984375 168.632812 120.984375 169.695312 L 120.984375 191.808594 C 120.984375 192.871094 120.5625 193.886719 119.8125 194.636719 C 119.0625 195.386719 118.046875 195.808594 116.984375 195.808594 L 93.617188 195.808594 C 92.558594 195.808594 91.542969 195.386719 90.792969 194.636719 C 90.042969 193.886719 89.617188 192.871094 89.617188 191.808594 L 89.617188 169.695312 C 89.617188 168.632812 90.042969 167.617188 90.792969 166.867188 C 91.542969 166.117188 92.558594 165.695312 93.617188 165.695312 Z M 93.617188 165.695312 "/>
</clipPath>
<clipPath id="clip4">
  <path d="M 34.398438 209.964844 L 365.6875 209.964844 L 365.6875 238.695312 L 34.398438 238.695312 Z M 34.398438 209.964844 "/>
</clipPath>
<clipPath id="clip5">
  <path d="M 38.398438 209.964844 L 361.601562 209.964844 C 362.664062 209.964844 363.679688 210.386719 364.429688 211.136719 C 365.179688 211.886719 365.601562 212.902344 365.601562 213.964844 L 365.601562 234.695312 C 365.601562 235.757812 365.179688 236.773438 364.429688 237.523438 C 363.679688 238.273438 362.664062 238.695312 361.601562 238.695312 L 38.398438 238.695312 C 37.335938 238.695312 36.320312 238.273438 35.570312 237.523438 C 34.820312 236.773438 34.398438 235.757812 34.398438 234.695312 L 34.398438 213.964844 C 34.398438 212.902344 34.820312 211.886719 35.570312 211.136719 C 36.320312 210.386719 37.335938 209.964844 38.398438 209.964844 Z M 38.398438 209.964844 "/>
</clipPath>
<clipPath id="clip6">
  <path d="M 38.398438 209.964844 L 361.601562 209.964844 C 362.664062 209.964844 363.679688 210.386719 364.429688 211.136719 C 365.179688 211.886719 365.601562 212.902344 365.601562 213.964844 L 365.601562 234.695312 C 365.601562 235.757812 365.179688 236.773438 364.429688 237.523438 C 363.679688 238.273438 362.664062 238.695312 361.601562 238.695312 L 38.398438 238.695312 C 37.335938 238.695312 36.320312 238.273438 35.570312 237.523438 C 34.820312 236.773438 34.398438 235.757812 34.398438 234.695312 L 34.398438 213.964844 C 34.398438 212.902344 34.820312 211.886719 35.570312 211.136719 C 36.320312 210.386719 37.335938 209.964844 38.398438 209.964844 Z M 38.398438 209.964844 "/>
</clipPath>
<clipPath id="clip7">
  <path d="M 89.617188 166.472656 L 121.617188 166.472656 L 121.617188 198.472656 L 89.617188 198.472656 Z M 89.617188 166.472656 "/>
</clipPath>
<clipPath id="clip8">
  <path d="M 247.855469 211.664062 L 363.9375 211.664062 L 363.9375 237 L 247.855469 237 Z M 247.855469 211.664062 "/>
</clipPath>
<clipPath id="clip9">
  <path d="M 251.054688 211.664062 L 360.734375 211.664062 C 362.5 211.664062 363.933594 213.097656 363.933594 214.863281 L 363.933594 233.800781 C 363.933594 235.566406 362.5 237 360.734375 237 L 251.054688 237 C 249.289062 237 247.855469 235.566406 247.855469 233.800781 L 247.855469 214.863281 C 247.855469 213.097656 249.289062 211.664062 251.054688 211.664062 Z M 251.054688 211.664062 "/>
</clipPath>
<clipPath id="clip10">
  <path d="M 251.054688 211.664062 L 360.734375 211.664062 C 362.5 211.664062 363.933594 213.097656 363.933594 214.863281 L 363.933594 233.800781 C 363.933594 235.566406 362.5 237 360.734375 237 L 251.054688 237 C 249.289062 237 247.855469 235.566406 247.855469 233.800781 L 247.855469 214.863281 C 247.855469 213.097656 249.289062 211.664062 251.054688 211.664062 Z M 251.054688 211.664062 "/>
</clipPath>
</defs>
<g id="surface1">
<rect x="0" y="0" width="400" height="400" style="fill:rgb(19.215687%,35.686275%,27.450982%);fill-opacity:1;stroke:none;"/>
<path style=" stroke:none;fill-rule:nonzero;fill:rgb(93.725491%,92.54902%,80.784315%);fill-opacity:1;" d="M 141.039062 203.148438 L 132.339844 203.148438 L 132.339844 164.035156 C 132.339844 162.832031 132.765625 161.8125 133.625 160.96875 C 134.476562 160.113281 135.5 159.683594 136.691406 159.683594 C 137.890625 159.683594 138.921875 160.117188 139.789062 160.984375 L 167.125 188.316406 L 167.125 159.683594 L 175.808594 159.683594 L 175.808594 198.800781 C 175.808594 200 175.378906 201.03125 174.523438 201.882812 C 173.679688 202.730469 172.660156 203.148438 171.472656 203.148438 C 170.273438 203.148438 169.242188 202.71875 168.375 201.851562 L 141.039062 174.515625 Z M 141.039062 203.148438 "/>
<path style=" stroke:none;fill-rule:nonzero;fill:rgb(93.725491%,92.54902%,80.784315%);fill-opacity:1;" d="M 118.46875 203.148438 L 92.382812 203.148438 C 90.792969 203.148438 89.335938 202.761719 88.015625 201.984375 C 86.691406 201.207031 85.636719 200.160156 84.851562 198.832031 C 84.070312 197.511719 83.683594 196.050781 83.683594 194.449219 L 83.683594 168.382812 C 83.683594 166.785156 84.070312 165.324219 84.851562 164 C 85.636719 162.679688 86.691406 161.628906 88.015625 160.851562 C 89.335938 160.074219 90.792969 159.683594 92.382812 159.683594 L 118.46875 159.683594 C 120.054688 159.683594 121.507812 160.074219 122.832031 160.851562 C 124.15625 161.628906 125.203125 162.679688 125.984375 164 C 126.757812 165.324219 127.148438 166.785156 127.148438 168.382812 L 127.148438 194.449219 C 127.148438 196.015625 126.757812 197.460938 125.984375 198.785156 C 125.203125 200.109375 124.160156 201.167969 122.851562 201.96875 C 121.550781 202.757812 120.085938 203.148438 118.46875 203.148438 Z M 92.382812 168.382812 L 92.382812 194.449219 L 118.46875 194.449219 L 118.46875 168.382812 Z M 92.382812 168.382812 "/>
<g clip-path="url(#clip1)" clip-rule="nonzero">
<g clip-path="url(#clip2)" clip-rule="nonzero">
<g clip-path="url(#clip3)" clip-rule="nonzero">
<path style=" stroke:none;fill-rule:nonzero;fill:rgb(93.725491%,92.54902%,80.784315%);fill-opacity:1;" d="M 89.617188 165.695312 L 121.023438 165.695312 L 121.023438 195.808594 L 89.617188 195.808594 Z M 89.617188 165.695312 "/>
</g>
</g>
</g>
<path style=" stroke:none;fill-rule:nonzero;fill:rgb(93.725491%,92.54902%,80.784315%);fill-opacity:1;" d="M 221.894531 159.683594 L 221.894531 168.382812 L 204.511719 168.382812 L 204.511719 203.148438 L 195.828125 203.148438 L 195.828125 168.382812 L 178.425781 168.382812 L 178.425781 159.683594 Z M 221.894531 159.683594 "/>
<g clip-path="url(#clip4)" clip-rule="nonzero">
<g clip-path="url(#clip5)" clip-rule="nonzero">
<g clip-path="url(#clip6)" clip-rule="nonzero">
<path style=" stroke:none;fill-rule:nonzero;fill:rgb(93.725491%,92.54902%,80.784315%);fill-opacity:1;" d="M 34.398438 209.964844 L 365.574219 209.964844 L 365.574219 238.695312 L 34.398438 238.695312 Z M 34.398438 209.964844 "/>
</g>
</g>
</g>
<g clip-path="url(#clip7)" clip-rule="nonzero">
<path style=" stroke:none;fill-rule:nonzero;fill:rgb(19.215687%,35.686275%,27.450982%);fill-opacity:1;" d="M 105.847656 195.644531 C 98.585938 195.644531 92.703125 189.769531 92.703125 182.519531 C 92.703125 175.269531 98.585938 169.390625 105.847656 169.390625 C 113.105469 169.390625 118.988281 175.269531 118.988281 182.519531 C 118.988281 189.769531 113.105469 195.644531 105.847656 195.644531 Z M 105.671875 166.488281 C 96.804688 166.488281 89.621094 173.667969 89.621094 182.519531 C 89.621094 191.375 96.804688 198.554688 105.671875 198.554688 C 114.535156 198.554688 121.714844 191.375 121.714844 182.519531 C 121.714844 173.667969 114.535156 166.488281 105.671875 166.488281 "/>
</g>
<path style=" stroke:none;fill-rule:nonzero;fill:rgb(93.725491%,92.54902%,80.784315%);fill-opacity:1;" d="M 105.667969 194.203125 C 99.191406 194.203125 93.9375 188.976562 93.9375 182.519531 C 93.9375 176.066406 99.191406 170.835938 105.667969 170.835938 C 112.144531 170.835938 117.394531 176.066406 117.394531 182.519531 C 117.394531 188.976562 112.144531 194.203125 105.667969 194.203125 Z M 105.671875 167.671875 C 97.4375 167.671875 90.761719 174.320312 90.761719 182.519531 C 90.761719 190.726562 97.4375 197.371094 105.671875 197.371094 C 113.898438 197.371094 120.574219 190.726562 120.574219 182.519531 C 120.574219 174.320312 113.898438 167.671875 105.671875 167.671875 "/>
<path style=" stroke:none;fill-rule:nonzero;fill:rgb(19.215687%,35.686275%,27.450982%);fill-opacity:1;" d="M 105.667969 193.746094 C 99.527344 193.746094 94.554688 188.722656 94.554688 182.519531 C 94.554688 176.320312 99.527344 171.296875 105.667969 171.296875 C 111.804688 171.296875 116.785156 176.320312 116.785156 182.519531 C 116.785156 188.722656 111.804688 193.746094 105.667969 193.746094 Z M 105.671875 168.253906 C 97.867188 168.253906 91.542969 174.640625 91.542969 182.519531 C 91.542969 190.398438 97.867188 196.789062 105.671875 196.789062 C 113.472656 196.789062 119.796875 190.398438 119.796875 182.519531 C 119.796875 174.640625 113.472656 168.253906 105.671875 168.253906 "/>
<path style=" stroke:none;fill-rule:nonzero;fill:rgb(19.215687%,35.686275%,27.450982%);fill-opacity:1;" d="M 105.667969 171.347656 C 99.566406 171.347656 94.605469 176.359375 94.605469 182.519531 C 94.605469 188.683594 99.566406 193.695312 105.667969 193.695312 C 111.765625 193.695312 116.730469 188.683594 116.730469 182.519531 C 116.730469 176.359375 111.765625 171.347656 105.667969 171.347656 Z M 105.667969 193.800781 C 99.511719 193.800781 94.5 188.738281 94.5 182.519531 C 94.5 176.304688 99.511719 171.242188 105.667969 171.242188 C 111.824219 171.242188 116.832031 176.304688 116.832031 182.519531 C 116.832031 188.738281 111.824219 193.800781 105.667969 193.800781 Z M 105.671875 168.304688 C 97.910156 168.304688 91.597656 174.683594 91.597656 182.519531 C 91.597656 190.359375 97.910156 196.738281 105.671875 196.738281 C 113.429688 196.738281 119.742188 190.359375 119.742188 182.519531 C 119.742188 174.683594 113.429688 168.304688 105.671875 168.304688 Z M 105.671875 196.839844 C 97.851562 196.839844 91.492188 190.417969 91.492188 182.519531 C 91.492188 174.625 97.851562 168.203125 105.671875 168.203125 C 113.488281 168.203125 119.847656 174.625 119.847656 182.519531 C 119.847656 190.417969 113.488281 196.839844 105.671875 196.839844 "/>
<path style=" stroke:none;fill-rule:nonzero;fill:rgb(93.725491%,92.54902%,80.784315%);fill-opacity:1;" d="M 105.671875 194.257812 C 99.207031 194.257812 93.976562 189.003906 93.976562 182.519531 C 93.976562 176.039062 99.207031 170.785156 105.671875 170.785156 C 112.125 170.785156 117.359375 176.039062 117.359375 182.519531 C 117.359375 189.003906 112.125 194.257812 105.671875 194.257812 Z M 105.671875 169.035156 C 98.25 169.035156 92.234375 175.070312 92.234375 182.519531 C 92.234375 189.972656 98.25 196.007812 105.671875 196.007812 C 113.085938 196.007812 119.105469 189.972656 119.105469 182.519531 C 119.105469 175.070312 113.085938 169.035156 105.671875 169.035156 "/>
<path style=" stroke:none;fill-rule:nonzero;fill:rgb(19.215687%,35.686275%,27.450982%);fill-opacity:1;" d="M 100.9375 179.921875 C 103.917969 176.480469 108.359375 174.039062 110.609375 172.941406 C 109.085938 172.140625 107.390625 171.726562 105.671875 171.726562 C 104.589844 171.726562 103.703125 171.832031 102.683594 172.148438 C 101.648438 174.804688 101.074219 178.347656 100.9375 179.921875 "/>
<path style=" stroke:none;fill-rule:nonzero;fill:rgb(19.215687%,35.686275%,27.450982%);fill-opacity:1;" d="M 96.527344 176.910156 C 97.511719 179.453125 99.199219 182.242188 100.265625 183.503906 C 100.148438 179.480469 101.324219 174.984375 102.171875 172.316406 C 99.675781 173.191406 97.800781 174.554688 96.527344 176.910156 "/>
<path style=" stroke:none;fill-rule:nonzero;fill:rgb(19.215687%,35.686275%,27.450982%);fill-opacity:1;" d="M 94.976562 182.519531 C 94.976562 183.394531 95.015625 183.984375 95.222656 184.824219 C 97.691406 186.171875 101.1875 187.015625 102.683594 187.207031 C 99.828125 184.179688 97.476562 180.0625 96.175781 177.550781 C 95.390625 179.078125 94.976562 180.789062 94.976562 182.519531 "/>
<path style=" stroke:none;fill-rule:nonzero;fill:rgb(19.215687%,35.686275%,27.450982%);fill-opacity:1;" d="M 95.375 185.4375 C 96.199219 188.410156 98.003906 190.789062 100.777344 192.125 C 103.292969 191.050781 106.019531 189.039062 107.058594 188.046875 C 106.804688 188.0625 106.546875 188.070312 106.285156 188.070312 C 102.210938 188.070312 97.875 186.511719 95.375 185.4375 "/>
<path style=" stroke:none;fill-rule:nonzero;fill:rgb(19.215687%,35.686275%,27.450982%);fill-opacity:1;" d="M 101.371094 192.414062 C 102.726562 193.011719 104.171875 193.316406 105.671875 193.316406 C 107.152344 193.316406 108.273438 193.148438 109.625 192.558594 C 110.328125 189.914062 110.597656 186.539062 110.527344 185.0625 C 108.125 188.472656 103.988281 191.027344 101.371094 192.414062 "/>
<path style=" stroke:none;fill-rule:nonzero;fill:rgb(19.215687%,35.686275%,27.450982%);fill-opacity:1;" d="M 114.847656 188.066406 C 113.8125 185.539062 111.917969 182.734375 110.945312 181.628906 C 111.226562 185.597656 110.640625 189.808594 110.1875 192.308594 C 112.214844 191.351562 113.746094 190.050781 114.847656 188.066406 "/>
<path style=" stroke:none;fill-rule:nonzero;fill:rgb(19.215687%,35.686275%,27.450982%);fill-opacity:1;" d="M 108.636719 178.292969 C 111.613281 181.113281 113.902344 185.066406 115.152344 187.507812 C 115.945312 185.976562 116.359375 184.261719 116.359375 182.519531 C 116.359375 181.726562 116.332031 181.207031 116.164062 180.433594 C 113.636719 179.207031 110.164062 178.453125 108.636719 178.292969 "/>
<path style=" stroke:none;fill-rule:nonzero;fill:rgb(19.215687%,35.686275%,27.450982%);fill-opacity:1;" d="M 111.183594 173.269531 C 108.417969 174.164062 105.367188 176.460938 104.167969 177.539062 C 104.507812 177.515625 104.859375 177.503906 105.222656 177.503906 C 109.25 177.503906 113.550781 178.871094 116.019531 179.804688 C 115.304688 177.015625 113.671875 174.722656 111.183594 173.269531 "/>
<path style=" stroke:none;fill-rule:nonzero;fill:rgb(19.215687%,35.686275%,27.450982%);fill-opacity:1;" d="M 91.597656 182.519531 C 91.597656 174.683594 97.910156 168.304688 105.671875 168.304688 C 109.691406 168.304688 113.320312 170.015625 115.886719 172.757812 L 115.933594 172.722656 C 113.359375 169.972656 109.710938 168.253906 105.671875 168.253906 C 97.867188 168.253906 91.542969 174.640625 91.542969 182.519531 C 91.542969 185.152344 92.25 187.617188 93.480469 189.734375 L 93.523438 189.699219 C 92.300781 187.589844 91.597656 185.136719 91.597656 182.519531 "/>
<g clip-path="url(#clip8)" clip-rule="nonzero">
<g clip-path="url(#clip9)" clip-rule="nonzero">
<g clip-path="url(#clip10)" clip-rule="nonzero">
<path style=" stroke:none;fill-rule:nonzero;fill:rgb(19.215687%,35.686275%,27.450982%);fill-opacity:1;" d="M 247.855469 211.664062 L 363.9375 211.664062 L 363.9375 237 L 247.855469 237 Z M 247.855469 211.664062 "/>
</g>
</g>
</g>
<path style=" stroke:none;fill-rule:nonzero;fill:rgb(93.725491%,92.54902%,80.784315%);fill-opacity:1;" d="M 78.480469 203.214844 L 44.046875 203.214844 C 42.46875 203.214844 41.023438 202.832031 39.714844 202.066406 C 38.414062 201.292969 37.375 200.25 36.597656 198.949219 C 35.832031 197.640625 35.449219 196.195312 35.449219 194.617188 L 35.449219 168.800781 C 35.449219 167.222656 35.832031 165.777344 36.597656 164.464844 C 37.375 163.15625 38.414062 162.117188 39.714844 161.347656 C 41.023438 160.574219 42.46875 160.183594 44.046875 160.183594 L 78.480469 160.183594 L 78.480469 168.800781 L 44.046875 168.800781 L 44.046875 194.617188 L 78.480469 194.617188 Z M 78.480469 203.214844 "/>
<path style=" stroke:none;fill-rule:nonzero;fill:rgb(93.725491%,92.54902%,80.784315%);fill-opacity:1;" d="M 268.867188 159.683594 L 268.867188 168.382812 L 234.101562 168.382812 L 234.101562 177.066406 L 268.867188 177.066406 L 268.867188 185.765625 L 234.101562 185.765625 L 234.101562 194.449219 L 268.867188 194.449219 L 268.867188 203.148438 L 234.101562 203.148438 C 232.511719 203.148438 231.054688 202.761719 229.734375 201.984375 C 228.410156 201.207031 227.355469 200.160156 226.570312 198.832031 C 225.789062 197.511719 225.402344 196.050781 225.402344 194.449219 L 225.402344 168.382812 C 225.402344 166.785156 225.789062 165.324219 226.570312 164 C 227.355469 162.679688 228.410156 161.628906 229.734375 160.851562 C 231.054688 160.074219 232.511719 159.683594 234.101562 159.683594 Z M 268.867188 159.683594 "/>
<path style=" stroke:none;fill-rule:nonzero;fill:rgb(93.725491%,92.54902%,80.784315%);fill-opacity:1;" d="M 283.429688 203.148438 L 274.730469 203.148438 L 274.730469 164.035156 C 274.730469 162.832031 275.152344 161.8125 276.011719 160.96875 C 276.867188 160.113281 277.886719 159.683594 279.078125 159.683594 C 280.277344 159.683594 281.3125 160.117188 282.179688 160.984375 L 309.511719 188.316406 L 309.511719 159.683594 L 318.195312 159.683594 L 318.195312 198.800781 C 318.195312 200 317.765625 201.03125 316.910156 201.882812 C 316.066406 202.730469 315.050781 203.148438 313.863281 203.148438 C 312.660156 203.148438 311.628906 202.71875 310.761719 201.851562 L 283.429688 174.515625 Z M 283.429688 203.148438 "/>
<path style=" stroke:none;fill-rule:nonzero;fill:rgb(93.725491%,92.54902%,80.784315%);fill-opacity:1;" d="M 365.199219 159.683594 L 365.199219 168.382812 L 347.816406 168.382812 L 347.816406 203.148438 L 339.132812 203.148438 L 339.132812 168.382812 L 321.730469 168.382812 L 321.730469 159.683594 Z M 365.199219 159.683594 "/>
<path style=" stroke:none;fill-rule:nonzero;fill:rgb(19.215687%,35.686275%,27.450982%);fill-opacity:1;" d="M 52.757812 218.074219 L 52.757812 220.714844 L 42.976562 220.714844 L 42.976562 220.453125 L 43.238281 220.453125 L 43.238281 222.835938 L 42.976562 222.835938 L 42.976562 222.574219 L 50.117188 222.574219 C 50.601562 222.574219 51.046875 222.695312 51.449219 222.933594 C 51.851562 223.164062 52.167969 223.484375 52.402344 223.886719 C 52.640625 224.289062 52.757812 224.730469 52.757812 225.214844 L 52.757812 227.597656 C 52.757812 228.082031 52.640625 228.523438 52.402344 228.925781 C 52.167969 229.328125 51.851562 229.644531 51.449219 229.882812 C 51.046875 230.121094 50.601562 230.238281 50.117188 230.238281 L 40.332031 230.238281 L 40.332031 227.335938 L 50.117188 227.335938 L 50.117188 227.597656 L 49.859375 227.597656 L 49.859375 225.214844 L 50.117188 225.214844 L 50.117188 225.476562 L 42.976562 225.476562 C 42.492188 225.476562 42.050781 225.355469 41.644531 225.121094 C 41.246094 224.886719 40.925781 224.566406 40.691406 224.164062 C 40.453125 223.761719 40.332031 223.320312 40.332031 222.835938 L 40.332031 220.453125 C 40.332031 219.96875 40.453125 219.527344 40.691406 219.125 C 40.925781 218.722656 41.246094 218.40625 41.644531 218.167969 C 42.050781 217.933594 42.492188 217.816406 42.976562 217.816406 L 52.757812 217.816406 Z M 52.238281 218.074219 L 52.5 218.074219 L 52.5 218.335938 L 42.976562 218.335938 C 42.585938 218.335938 42.234375 218.425781 41.910156 218.621094 C 41.585938 218.808594 41.328125 219.066406 41.136719 219.390625 C 40.949219 219.710938 40.855469 220.066406 40.855469 220.453125 L 40.855469 222.835938 C 40.855469 223.222656 40.949219 223.582031 41.136719 223.902344 C 41.328125 224.222656 41.585938 224.480469 41.910156 224.671875 C 42.234375 224.859375 42.585938 224.957031 42.976562 224.957031 L 50.378906 224.957031 L 50.378906 227.855469 L 40.597656 227.855469 L 40.597656 227.597656 L 40.855469 227.597656 L 40.855469 229.976562 L 40.597656 229.976562 L 40.597656 229.714844 L 50.117188 229.714844 C 50.507812 229.714844 50.863281 229.625 51.183594 229.433594 C 51.507812 229.246094 51.761719 228.984375 51.953125 228.660156 C 52.144531 228.339844 52.238281 227.984375 52.238281 227.597656 L 52.238281 225.214844 C 52.238281 224.828125 52.144531 224.472656 51.953125 224.148438 C 51.761719 223.828125 51.507812 223.570312 51.183594 223.378906 C 50.863281 223.191406 50.507812 223.09375 50.117188 223.09375 L 42.714844 223.09375 L 42.714844 220.195312 L 52.5 220.195312 L 52.5 220.453125 L 52.238281 220.453125 Z M 52.238281 218.074219 "/>
<path style=" stroke:none;fill-rule:nonzero;fill:rgb(19.215687%,35.686275%,27.450982%);fill-opacity:1;" d="M 72.953125 230.238281 L 63.429688 230.238281 C 62.945312 230.238281 62.503906 230.121094 62.097656 229.882812 C 61.699219 229.644531 61.378906 229.328125 61.144531 228.925781 C 60.90625 228.523438 60.785156 228.082031 60.785156 227.597656 L 60.785156 220.453125 C 60.785156 219.96875 60.90625 219.527344 61.144531 219.125 C 61.378906 218.722656 61.699219 218.40625 62.097656 218.167969 C 62.503906 217.933594 62.945312 217.816406 63.429688 217.816406 L 73.210938 217.816406 L 73.210938 220.714844 L 63.429688 220.714844 L 63.429688 220.453125 L 63.691406 220.453125 L 63.691406 227.597656 L 63.429688 227.597656 L 63.429688 227.335938 L 73.210938 227.335938 L 73.210938 230.238281 Z M 72.953125 229.714844 L 72.953125 229.976562 L 72.691406 229.976562 L 72.691406 227.597656 L 72.953125 227.597656 L 72.953125 227.855469 L 63.171875 227.855469 L 63.171875 220.195312 L 72.953125 220.195312 L 72.953125 220.453125 L 72.691406 220.453125 L 72.691406 218.074219 L 72.953125 218.074219 L 72.953125 218.335938 L 63.429688 218.335938 C 63.039062 218.335938 62.6875 218.425781 62.363281 218.621094 C 62.039062 218.808594 61.78125 219.066406 61.589844 219.390625 C 61.402344 219.710938 61.308594 220.066406 61.308594 220.453125 L 61.308594 227.597656 C 61.308594 227.984375 61.402344 228.339844 61.589844 228.660156 C 61.78125 228.984375 62.039062 229.246094 62.363281 229.433594 C 62.6875 229.625 63.039062 229.714844 63.429688 229.714844 Z M 72.953125 229.714844 "/>
<path style=" stroke:none;fill-rule:nonzero;fill:rgb(19.215687%,35.686275%,27.450982%);fill-opacity:1;" d="M 83.882812 217.816406 L 91.023438 217.816406 C 91.507812 217.816406 91.953125 217.933594 92.355469 218.167969 C 92.757812 218.40625 93.074219 218.722656 93.3125 219.125 C 93.546875 219.527344 93.664062 219.96875 93.664062 220.453125 L 93.664062 230.238281 L 90.765625 230.238281 L 90.765625 225.214844 L 91.023438 225.214844 L 91.023438 225.476562 L 83.882812 225.476562 L 83.882812 225.214844 L 84.144531 225.214844 L 84.144531 230.238281 L 81.238281 230.238281 L 81.238281 220.453125 C 81.238281 219.96875 81.359375 219.527344 81.597656 219.125 C 81.832031 218.722656 82.152344 218.40625 82.550781 218.167969 C 82.957031 217.933594 83.398438 217.816406 83.882812 217.816406 Z M 83.882812 218.335938 C 83.496094 218.335938 83.140625 218.425781 82.816406 218.621094 C 82.496094 218.808594 82.234375 219.066406 82.042969 219.390625 C 81.855469 219.710938 81.761719 220.066406 81.761719 220.453125 L 81.761719 229.976562 L 81.503906 229.976562 L 81.503906 229.714844 L 83.882812 229.714844 L 83.882812 229.976562 L 83.625 229.976562 L 83.625 224.957031 L 91.285156 224.957031 L 91.285156 229.976562 L 91.023438 229.976562 L 91.023438 229.714844 L 93.40625 229.714844 L 93.40625 229.976562 L 93.144531 229.976562 L 93.144531 220.453125 C 93.144531 220.066406 93.050781 219.710938 92.859375 219.390625 C 92.667969 219.066406 92.414062 218.808594 92.089844 218.621094 C 91.769531 218.425781 91.414062 218.335938 91.023438 218.335938 Z M 84.144531 220.453125 L 84.144531 222.835938 L 83.882812 222.835938 L 83.882812 222.574219 L 91.023438 222.574219 L 91.023438 222.835938 L 90.765625 222.835938 L 90.765625 220.453125 L 91.023438 220.453125 L 91.023438 220.714844 L 83.882812 220.714844 L 83.882812 220.453125 Z M 83.625 220.195312 L 91.285156 220.195312 L 91.285156 223.09375 L 83.625 223.09375 Z M 83.625 220.195312 "/>
<path style=" stroke:none;fill-rule:nonzero;fill:rgb(19.215687%,35.686275%,27.450982%);fill-opacity:1;" d="M 113.859375 230.238281 L 104.335938 230.238281 C 103.851562 230.238281 103.410156 230.121094 103.007812 229.882812 C 102.605469 229.644531 102.285156 229.328125 102.050781 228.925781 C 101.8125 228.523438 101.695312 228.082031 101.695312 227.597656 L 101.695312 217.816406 L 104.597656 217.816406 L 104.597656 227.597656 L 104.335938 227.597656 L 104.335938 227.335938 L 114.117188 227.335938 L 114.117188 230.238281 Z M 113.859375 229.714844 L 113.859375 229.976562 L 113.597656 229.976562 L 113.597656 227.597656 L 113.859375 227.597656 L 113.859375 227.855469 L 104.078125 227.855469 L 104.078125 218.074219 L 104.335938 218.074219 L 104.335938 218.335938 L 101.957031 218.335938 L 101.957031 218.074219 L 102.214844 218.074219 L 102.214844 227.597656 C 102.214844 227.984375 102.308594 228.339844 102.496094 228.660156 C 102.6875 228.984375 102.949219 229.246094 103.269531 229.433594 C 103.59375 229.625 103.949219 229.714844 104.335938 229.714844 Z M 113.859375 229.714844 "/>
<path style=" stroke:none;fill-rule:nonzero;fill:rgb(19.215687%,35.686275%,27.450982%);fill-opacity:1;" d="M 134.570312 218.074219 L 134.570312 220.714844 L 124.789062 220.714844 L 124.789062 220.453125 L 125.050781 220.453125 L 125.050781 222.835938 L 124.789062 222.835938 L 124.789062 222.574219 L 134.570312 222.574219 L 134.570312 225.476562 L 124.789062 225.476562 L 124.789062 225.214844 L 125.050781 225.214844 L 125.050781 227.597656 L 124.789062 227.597656 L 124.789062 227.335938 L 134.570312 227.335938 L 134.570312 230.238281 L 124.789062 230.238281 C 124.304688 230.238281 123.863281 230.121094 123.460938 229.882812 C 123.058594 229.644531 122.738281 229.328125 122.503906 228.925781 C 122.269531 228.523438 122.148438 228.082031 122.148438 227.597656 L 122.148438 220.453125 C 122.148438 219.96875 122.269531 219.527344 122.503906 219.125 C 122.738281 218.722656 123.058594 218.40625 123.460938 218.167969 C 123.863281 217.933594 124.304688 217.816406 124.789062 217.816406 L 134.570312 217.816406 Z M 134.050781 218.074219 L 134.3125 218.074219 L 134.3125 218.335938 L 124.789062 218.335938 C 124.402344 218.335938 124.046875 218.425781 123.722656 218.621094 C 123.402344 218.808594 123.144531 219.066406 122.949219 219.390625 C 122.761719 219.710938 122.667969 220.066406 122.667969 220.453125 L 122.667969 227.597656 C 122.667969 227.984375 122.761719 228.339844 122.949219 228.660156 C 123.144531 228.984375 123.402344 229.246094 123.722656 229.433594 C 124.046875 229.625 124.402344 229.714844 124.789062 229.714844 L 134.3125 229.714844 L 134.3125 229.976562 L 134.050781 229.976562 L 134.050781 227.597656 L 134.3125 227.597656 L 134.3125 227.855469 L 124.53125 227.855469 L 124.53125 224.957031 L 134.3125 224.957031 L 134.3125 225.214844 L 134.050781 225.214844 L 134.050781 222.835938 L 134.3125 222.835938 L 134.3125 223.09375 L 124.53125 223.09375 L 124.53125 220.195312 L 134.3125 220.195312 L 134.3125 220.453125 L 134.050781 220.453125 Z M 134.050781 218.074219 "/>
<path style=" stroke:none;fill-rule:nonzero;fill:rgb(19.215687%,35.686275%,27.450982%);fill-opacity:1;" d="M 52.5 218.078125 L 52.5 220.445312 L 42.984375 220.445312 L 42.984375 222.828125 L 50.117188 222.828125 C 50.558594 222.828125 50.957031 222.941406 51.316406 223.160156 C 51.683594 223.375 51.972656 223.660156 52.183594 224.027344 C 52.390625 224.386719 52.5 224.777344 52.5 225.210938 L 52.5 227.59375 C 52.5 228.027344 52.390625 228.425781 52.183594 228.792969 C 51.972656 229.160156 51.683594 229.453125 51.316406 229.660156 C 50.957031 229.875 50.558594 229.976562 50.117188 229.976562 L 40.601562 229.976562 L 40.601562 227.59375 L 50.117188 227.59375 L 50.117188 225.210938 L 42.984375 225.210938 C 42.539062 225.210938 42.132812 225.105469 41.765625 224.894531 C 41.410156 224.6875 41.125 224.402344 40.917969 224.042969 C 40.703125 223.675781 40.601562 223.273438 40.601562 222.828125 L 40.601562 220.445312 C 40.601562 220.011719 40.703125 219.621094 40.917969 219.261719 C 41.125 218.894531 41.410156 218.605469 41.765625 218.394531 C 42.132812 218.1875 42.539062 218.078125 42.984375 218.078125 Z M 52.5 218.078125 "/>
<path style=" stroke:none;fill-rule:nonzero;fill:rgb(19.215687%,35.686275%,27.450982%);fill-opacity:1;" d="M 72.953125 229.976562 L 63.4375 229.976562 C 62.992188 229.976562 62.585938 229.875 62.21875 229.660156 C 61.863281 229.453125 61.578125 229.160156 61.371094 228.792969 C 61.15625 228.425781 61.054688 228.027344 61.054688 227.59375 L 61.054688 220.445312 C 61.054688 220.011719 61.15625 219.621094 61.371094 219.261719 C 61.578125 218.894531 61.863281 218.605469 62.21875 218.394531 C 62.585938 218.1875 62.992188 218.078125 63.4375 218.078125 L 72.953125 218.078125 L 72.953125 220.445312 L 63.4375 220.445312 L 63.4375 227.59375 L 72.953125 227.59375 Z M 72.953125 229.976562 "/>
<path style=" stroke:none;fill-rule:nonzero;fill:rgb(19.215687%,35.686275%,27.450982%);fill-opacity:1;" d="M 83.890625 218.078125 L 91.023438 218.078125 C 91.464844 218.078125 91.863281 218.1875 92.222656 218.394531 C 92.589844 218.605469 92.878906 218.894531 93.089844 219.261719 C 93.296875 219.621094 93.40625 220.011719 93.40625 220.445312 L 93.40625 229.976562 L 91.023438 229.976562 L 91.023438 225.210938 L 83.890625 225.210938 L 83.890625 229.976562 L 81.507812 229.976562 L 81.507812 220.445312 C 81.507812 220.011719 81.609375 219.621094 81.824219 219.261719 C 82.03125 218.894531 82.316406 218.605469 82.671875 218.394531 C 83.039062 218.1875 83.445312 218.078125 83.890625 218.078125 Z M 83.890625 220.445312 L 83.890625 222.828125 L 91.023438 222.828125 L 91.023438 220.445312 Z M 83.890625 220.445312 "/>
<path style=" stroke:none;fill-rule:nonzero;fill:rgb(19.215687%,35.686275%,27.450982%);fill-opacity:1;" d="M 113.859375 229.976562 L 104.34375 229.976562 C 103.898438 229.976562 103.492188 229.875 103.125 229.660156 C 102.769531 229.453125 102.484375 229.160156 102.277344 228.792969 C 102.0625 228.425781 101.960938 228.027344 101.960938 227.59375 L 101.960938 218.078125 L 104.34375 218.078125 L 104.34375 227.59375 L 113.859375 227.59375 Z M 113.859375 229.976562 "/>
<path style=" stroke:none;fill-rule:nonzero;fill:rgb(19.215687%,35.686275%,27.450982%);fill-opacity:1;" d="M 134.3125 218.078125 L 134.3125 220.445312 L 124.796875 220.445312 L 124.796875 222.828125 L 134.3125 222.828125 L 134.3125 225.210938 L 124.796875 225.210938 L 124.796875 227.59375 L 134.3125 227.59375 L 134.3125 229.976562 L 124.796875 229.976562 C 124.351562 229.976562 123.945312 229.875 123.582031 229.660156 C 123.222656 229.453125 122.9375 229.160156 122.730469 228.792969 C 122.519531 228.425781 122.414062 228.027344 122.414062 227.59375 L 122.414062 220.445312 C 122.414062 220.011719 122.519531 219.621094 122.730469 219.261719 C 122.9375 218.894531 123.222656 218.605469 123.582031 218.394531 C 123.945312 218.1875 124.351562 218.078125 124.796875 218.078125 Z M 134.3125 218.078125 "/>
<path style=" stroke:none;fill-rule:nonzero;fill:rgb(19.215687%,35.686275%,27.450982%);fill-opacity:1;" d="M 261.335938 217.769531 L 268.480469 217.769531 C 268.964844 217.769531 269.40625 217.886719 269.8125 218.125 C 270.210938 218.359375 270.527344 218.675781 270.765625 219.078125 C 271.003906 219.480469 271.121094 219.921875 271.121094 220.40625 L 271.121094 230.195312 L 268.21875 230.195312 L 268.21875 220.40625 L 268.480469 220.40625 L 268.480469 220.667969 L 266.101562 220.667969 L 266.101562 220.40625 L 266.363281 220.40625 L 266.363281 230.195312 L 263.457031 230.195312 L 263.457031 220.40625 L 263.71875 220.40625 L 263.71875 220.667969 L 261.335938 220.667969 L 261.335938 220.40625 L 261.601562 220.40625 L 261.601562 230.195312 L 258.695312 230.195312 L 258.695312 220.40625 C 258.695312 219.921875 258.816406 219.480469 259.054688 219.078125 C 259.289062 218.675781 259.609375 218.359375 260.007812 218.125 C 260.414062 217.886719 260.855469 217.769531 261.335938 217.769531 Z M 261.335938 218.289062 C 260.949219 218.289062 260.59375 218.382812 260.269531 218.574219 C 259.949219 218.761719 259.691406 219.019531 259.5 219.34375 C 259.3125 219.664062 259.214844 220.019531 259.214844 220.40625 L 259.214844 229.929688 L 258.957031 229.929688 L 258.957031 229.667969 L 261.335938 229.667969 L 261.335938 229.929688 L 261.078125 229.929688 L 261.078125 220.148438 L 263.980469 220.148438 L 263.980469 229.929688 L 263.71875 229.929688 L 263.71875 229.667969 L 266.101562 229.667969 L 266.101562 229.929688 L 265.839844 229.929688 L 265.839844 220.148438 L 268.742188 220.148438 L 268.742188 229.929688 L 268.480469 229.929688 L 268.480469 229.667969 L 270.863281 229.667969 L 270.863281 229.929688 L 270.601562 229.929688 L 270.601562 220.40625 C 270.601562 220.019531 270.507812 219.664062 270.316406 219.34375 C 270.125 219.019531 269.871094 218.761719 269.546875 218.574219 C 269.226562 218.382812 268.871094 218.289062 268.480469 218.289062 Z M 261.335938 218.289062 "/>
<path style=" stroke:none;fill-rule:nonzero;fill:rgb(19.215687%,35.686275%,27.450982%);fill-opacity:1;" d="M 291.578125 218.027344 L 291.578125 220.667969 L 281.792969 220.667969 L 281.792969 220.40625 L 282.058594 220.40625 L 282.058594 222.789062 L 281.792969 222.789062 L 281.792969 222.527344 L 291.578125 222.527344 L 291.578125 225.429688 L 281.792969 225.429688 L 281.792969 225.167969 L 282.058594 225.167969 L 282.058594 227.550781 L 281.792969 227.550781 L 281.792969 227.289062 L 291.578125 227.289062 L 291.578125 230.195312 L 281.792969 230.195312 C 281.3125 230.195312 280.871094 230.074219 280.464844 229.835938 C 280.066406 229.597656 279.746094 229.28125 279.511719 228.882812 C 279.273438 228.476562 279.152344 228.035156 279.152344 227.550781 L 279.152344 220.40625 C 279.152344 219.921875 279.273438 219.480469 279.511719 219.078125 C 279.746094 218.675781 280.066406 218.359375 280.464844 218.125 C 280.871094 217.886719 281.3125 217.769531 281.792969 217.769531 L 291.578125 217.769531 Z M 291.058594 218.027344 L 291.320312 218.027344 L 291.320312 218.289062 L 281.792969 218.289062 C 281.40625 218.289062 281.050781 218.382812 280.726562 218.574219 C 280.40625 218.761719 280.148438 219.019531 279.957031 219.34375 C 279.769531 219.664062 279.671875 220.019531 279.671875 220.40625 L 279.671875 227.550781 C 279.671875 227.941406 279.769531 228.292969 279.957031 228.613281 C 280.148438 228.941406 280.40625 229.199219 280.726562 229.386719 C 281.050781 229.578125 281.40625 229.667969 281.792969 229.667969 L 291.320312 229.667969 L 291.320312 229.929688 L 291.058594 229.929688 L 291.058594 227.550781 L 291.320312 227.550781 L 291.320312 227.8125 L 281.535156 227.8125 L 281.535156 224.910156 L 291.320312 224.910156 L 291.320312 225.167969 L 291.058594 225.167969 L 291.058594 222.789062 L 291.320312 222.789062 L 291.320312 223.046875 L 281.535156 223.046875 L 281.535156 220.148438 L 291.320312 220.148438 L 291.320312 220.40625 L 291.058594 220.40625 Z M 291.058594 218.027344 "/>
<path style=" stroke:none;fill-rule:nonzero;fill:rgb(19.215687%,35.686275%,27.450982%);fill-opacity:1;" d="M 309.394531 230.195312 L 299.609375 230.195312 L 299.609375 217.769531 L 309.394531 217.769531 C 309.878906 217.769531 310.324219 217.886719 310.726562 218.125 C 311.125 218.359375 311.441406 218.675781 311.679688 219.078125 C 311.917969 219.480469 312.035156 219.921875 312.035156 220.40625 L 312.035156 227.550781 C 312.035156 228.035156 311.917969 228.476562 311.679688 228.882812 C 311.441406 229.28125 311.125 229.597656 310.726562 229.835938 C 310.324219 230.074219 309.878906 230.195312 309.394531 230.195312 Z M 309.394531 229.667969 C 309.785156 229.667969 310.140625 229.578125 310.460938 229.386719 C 310.785156 229.199219 311.039062 228.941406 311.230469 228.613281 C 311.421875 228.292969 311.515625 227.941406 311.515625 227.550781 L 311.515625 220.40625 C 311.515625 220.019531 311.421875 219.664062 311.230469 219.34375 C 311.039062 219.019531 310.785156 218.761719 310.460938 218.574219 C 310.140625 218.382812 309.785156 218.289062 309.394531 218.289062 L 299.871094 218.289062 L 299.871094 218.027344 L 300.128906 218.027344 L 300.128906 229.929688 L 299.871094 229.929688 L 299.871094 229.667969 Z M 302.515625 220.40625 L 302.515625 227.550781 L 302.25 227.550781 L 302.25 227.289062 L 309.394531 227.289062 L 309.394531 227.550781 L 309.136719 227.550781 L 309.136719 220.40625 L 309.394531 220.40625 L 309.394531 220.667969 L 302.25 220.667969 L 302.25 220.40625 Z M 301.992188 220.148438 L 309.65625 220.148438 L 309.65625 227.8125 L 301.992188 227.8125 Z M 301.992188 220.148438 "/>
<path style=" stroke:none;fill-rule:nonzero;fill:rgb(19.215687%,35.686275%,27.450982%);fill-opacity:1;" d="M 332.234375 230.195312 L 320.066406 230.195312 L 320.066406 227.289062 L 325.09375 227.289062 L 325.09375 227.550781 L 324.828125 227.550781 L 324.828125 220.40625 L 325.09375 220.40625 L 325.09375 220.667969 L 320.066406 220.667969 L 320.066406 217.769531 L 332.492188 217.769531 L 332.492188 220.667969 L 327.472656 220.667969 L 327.472656 220.40625 L 327.734375 220.40625 L 327.734375 227.550781 L 327.472656 227.550781 L 327.472656 227.289062 L 332.492188 227.289062 L 332.492188 230.195312 Z M 332.234375 229.667969 L 332.234375 229.929688 L 331.972656 229.929688 L 331.972656 227.550781 L 332.234375 227.550781 L 332.234375 227.8125 L 327.210938 227.8125 L 327.210938 220.148438 L 332.234375 220.148438 L 332.234375 220.40625 L 331.972656 220.40625 L 331.972656 218.027344 L 332.234375 218.027344 L 332.234375 218.289062 L 320.328125 218.289062 L 320.328125 218.027344 L 320.585938 218.027344 L 320.585938 220.40625 L 320.328125 220.40625 L 320.328125 220.148438 L 325.351562 220.148438 L 325.351562 227.8125 L 320.328125 227.8125 L 320.328125 227.550781 L 320.585938 227.550781 L 320.585938 229.929688 L 320.328125 229.929688 L 320.328125 229.667969 Z M 332.234375 229.667969 "/>
<path style=" stroke:none;fill-rule:nonzero;fill:rgb(19.215687%,35.686275%,27.450982%);fill-opacity:1;" d="M 343.164062 217.769531 L 350.308594 217.769531 C 350.792969 217.769531 351.238281 217.886719 351.640625 218.125 C 352.039062 218.359375 352.355469 218.675781 352.59375 219.078125 C 352.832031 219.480469 352.949219 219.921875 352.949219 220.40625 L 352.949219 230.195312 L 350.050781 230.195312 L 350.050781 225.167969 L 350.308594 225.167969 L 350.308594 225.429688 L 343.164062 225.429688 L 343.164062 225.167969 L 343.429688 225.167969 L 343.429688 230.195312 L 340.523438 230.195312 L 340.523438 220.40625 C 340.523438 219.921875 340.644531 219.480469 340.882812 219.078125 C 341.117188 218.675781 341.4375 218.359375 341.835938 218.125 C 342.242188 217.886719 342.683594 217.769531 343.164062 217.769531 Z M 343.164062 218.289062 C 342.777344 218.289062 342.425781 218.382812 342.097656 218.574219 C 341.777344 218.761719 341.519531 219.019531 341.328125 219.34375 C 341.140625 219.664062 341.042969 220.019531 341.042969 220.40625 L 341.042969 229.929688 L 340.785156 229.929688 L 340.785156 229.667969 L 343.164062 229.667969 L 343.164062 229.929688 L 342.90625 229.929688 L 342.90625 224.910156 L 350.570312 224.910156 L 350.570312 229.929688 L 350.308594 229.929688 L 350.308594 229.667969 L 352.691406 229.667969 L 352.691406 229.929688 L 352.429688 229.929688 L 352.429688 220.40625 C 352.429688 220.019531 352.335938 219.664062 352.144531 219.34375 C 351.953125 219.019531 351.699219 218.761719 351.375 218.574219 C 351.054688 218.382812 350.699219 218.289062 350.308594 218.289062 Z M 343.429688 220.40625 L 343.429688 222.789062 L 343.164062 222.789062 L 343.164062 222.527344 L 350.308594 222.527344 L 350.308594 222.789062 L 350.050781 222.789062 L 350.050781 220.40625 L 350.308594 220.40625 L 350.308594 220.667969 L 343.164062 220.667969 L 343.164062 220.40625 Z M 342.90625 220.148438 L 350.570312 220.148438 L 350.570312 223.046875 L 342.90625 223.046875 Z M 342.90625 220.148438 "/>
<path style=" stroke:none;fill-rule:nonzero;fill:rgb(93.725491%,92.54902%,80.784315%);fill-opacity:1;" d="M 261.34375 218.03125 L 268.480469 218.03125 C 268.921875 218.03125 269.320312 218.140625 269.679688 218.347656 C 270.046875 218.5625 270.332031 218.847656 270.546875 219.214844 C 270.753906 219.574219 270.863281 219.964844 270.863281 220.398438 L 270.863281 229.929688 L 268.480469 229.929688 L 268.480469 220.398438 L 266.09375 220.398438 L 266.09375 229.929688 L 263.710938 229.929688 L 263.710938 220.398438 L 261.34375 220.398438 L 261.34375 229.929688 L 258.960938 229.929688 L 258.960938 220.398438 C 258.960938 219.964844 259.066406 219.574219 259.277344 219.214844 C 259.488281 218.847656 259.769531 218.5625 260.128906 218.347656 C 260.496094 218.140625 260.898438 218.03125 261.34375 218.03125 Z M 261.34375 218.03125 "/>
<path style=" stroke:none;fill-rule:nonzero;fill:rgb(93.725491%,92.54902%,80.784315%);fill-opacity:1;" d="M 291.320312 218.03125 L 291.320312 220.398438 L 281.800781 220.398438 L 281.800781 222.78125 L 291.320312 222.78125 L 291.320312 225.164062 L 281.800781 225.164062 L 281.800781 227.546875 L 291.320312 227.546875 L 291.320312 229.929688 L 281.800781 229.929688 C 281.355469 229.929688 280.953125 229.828125 280.585938 229.613281 C 280.226562 229.40625 279.945312 229.113281 279.734375 228.75 C 279.523438 228.382812 279.417969 227.980469 279.417969 227.546875 L 279.417969 220.398438 C 279.417969 219.964844 279.523438 219.574219 279.734375 219.214844 C 279.945312 218.847656 280.226562 218.5625 280.585938 218.347656 C 280.953125 218.140625 281.355469 218.03125 281.800781 218.03125 Z M 291.320312 218.03125 "/>
<path style=" stroke:none;fill-rule:nonzero;fill:rgb(93.725491%,92.54902%,80.784315%);fill-opacity:1;" d="M 309.394531 229.929688 L 299.875 229.929688 L 299.875 218.03125 L 309.394531 218.03125 C 309.835938 218.03125 310.234375 218.140625 310.59375 218.347656 C 310.960938 218.5625 311.246094 218.847656 311.460938 219.214844 C 311.667969 219.574219 311.777344 219.964844 311.777344 220.398438 L 311.777344 227.546875 C 311.777344 227.980469 311.667969 228.382812 311.460938 228.75 C 311.246094 229.113281 310.960938 229.40625 310.59375 229.613281 C 310.234375 229.828125 309.835938 229.929688 309.394531 229.929688 Z M 302.257812 220.398438 L 302.257812 227.546875 L 309.394531 227.546875 L 309.394531 220.398438 Z M 302.257812 220.398438 "/>
<path style=" stroke:none;fill-rule:nonzero;fill:rgb(93.725491%,92.54902%,80.784315%);fill-opacity:1;" d="M 332.234375 229.929688 L 320.332031 229.929688 L 320.332031 227.546875 L 325.082031 227.546875 L 325.082031 220.398438 L 320.332031 220.398438 L 320.332031 218.03125 L 332.234375 218.03125 L 332.234375 220.398438 L 327.46875 220.398438 L 327.46875 227.546875 L 332.234375 227.546875 Z M 332.234375 229.929688 "/>
<path style=" stroke:none;fill-rule:nonzero;fill:rgb(93.725491%,92.54902%,80.784315%);fill-opacity:1;" d="M 343.175781 218.03125 L 350.308594 218.03125 C 350.75 218.03125 351.148438 218.140625 351.507812 218.347656 C 351.875 218.5625 352.160156 218.847656 352.375 219.214844 C 352.582031 219.574219 352.691406 219.964844 352.691406 220.398438 L 352.691406 229.929688 L 350.308594 229.929688 L 350.308594 225.164062 L 343.175781 225.164062 L 343.175781 229.929688 L 340.789062 229.929688 L 340.789062 220.398438 C 340.789062 219.964844 340.894531 219.574219 341.105469 219.214844 C 341.316406 218.847656 341.597656 218.5625 341.957031 218.347656 C 342.324219 218.140625 342.726562 218.03125 343.175781 218.03125 Z M 343.175781 220.398438 L 343.175781 222.78125 L 350.308594 222.78125 L 350.308594 220.398438 Z M 343.175781 220.398438 "/>
</g>
</svg>
