<svg xmlns="http://www.w3.org/2000/svg" xmlns:xlink="http://www.w3.org/1999/xlink" width="500" zoomAndPan="magnify" viewBox="0 0 375 374.999991" height="500" preserveAspectRatio="xMidYMid meet" version="1.0"><defs><g/><clipPath id="fd4310ff79"><rect x="0" width="47" y="0" height="63"/></clipPath><clipPath id="6bee30631f"><rect x="0" width="46" y="0" height="63"/></clipPath><clipPath id="642037c638"><path d="M 84 155.230469 L 113.460938 155.230469 L 113.460938 183.570312 L 84 183.570312 Z M 84 155.230469 " clip-rule="nonzero"/></clipPath><clipPath id="afd26c9361"><path d="M 87.765625 155.339844 L 109.671875 155.339844 C 110.667969 155.339844 111.621094 155.734375 112.324219 156.4375 C 113.027344 157.140625 113.421875 158.09375 113.421875 159.089844 L 113.421875 179.820312 C 113.421875 180.816406 113.027344 181.769531 112.324219 182.472656 C 111.621094 183.175781 110.667969 183.570312 109.671875 183.570312 L 87.765625 183.570312 C 86.773438 183.570312 85.820312 183.175781 85.117188 182.472656 C 84.414062 181.769531 84.015625 180.816406 84.015625 179.820312 L 84.015625 159.089844 C 84.015625 158.09375 84.414062 157.140625 85.117188 156.4375 C 85.820312 155.734375 86.773438 155.339844 87.765625 155.339844 Z M 87.765625 155.339844 " clip-rule="nonzero"/></clipPath><clipPath id="d9d6bc991a"><path d="M 0 0.28125 L 29.460938 0.28125 L 29.460938 28.570312 L 0 28.570312 Z M 0 0.28125 " clip-rule="nonzero"/></clipPath><clipPath id="ecb60ba62b"><path d="M 3.765625 0.339844 L 25.671875 0.339844 C 26.667969 0.339844 27.621094 0.734375 28.324219 1.4375 C 29.027344 2.140625 29.421875 3.09375 29.421875 4.089844 L 29.421875 24.820312 C 29.421875 25.816406 29.027344 26.769531 28.324219 27.472656 C 27.621094 28.175781 26.667969 28.570312 25.671875 28.570312 L 3.765625 28.570312 C 2.773438 28.570312 1.820312 28.175781 1.117188 27.472656 C 0.414062 26.769531 0.015625 25.816406 0.015625 24.820312 L 0.015625 4.089844 C 0.015625 3.09375 0.414062 2.140625 1.117188 1.4375 C 1.820312 0.734375 2.773438 0.339844 3.765625 0.339844 Z M 3.765625 0.339844 " clip-rule="nonzero"/></clipPath><clipPath id="da27774932"><rect x="0" width="30" y="0" height="29"/></clipPath><clipPath id="16039ff2e7"><rect x="0" width="46" y="0" height="63"/></clipPath><clipPath id="7b5de6f8b6"><path d="M 32.25 196.84375 L 342.832031 196.84375 L 342.832031 223.777344 L 32.25 223.777344 Z M 32.25 196.84375 " clip-rule="nonzero"/></clipPath><clipPath id="b05dee70a4"><path d="M 36 196.84375 L 339 196.84375 C 339.996094 196.84375 340.949219 197.238281 341.652344 197.941406 C 342.355469 198.644531 342.75 199.597656 342.75 200.59375 L 342.75 220.027344 C 342.75 221.023438 342.355469 221.976562 341.652344 222.679688 C 340.949219 223.382812 339.996094 223.777344 339 223.777344 L 36 223.777344 C 35.003906 223.777344 34.050781 223.382812 33.347656 222.679688 C 32.644531 221.976562 32.25 221.023438 32.25 220.027344 L 32.25 200.59375 C 32.25 199.597656 32.644531 198.644531 33.347656 197.941406 C 34.050781 197.238281 35.003906 196.84375 36 196.84375 Z M 36 196.84375 " clip-rule="nonzero"/></clipPath><clipPath id="870d85b4d6"><path d="M 0.25 0.84375 L 310.832031 0.84375 L 310.832031 27.777344 L 0.25 27.777344 Z M 0.25 0.84375 " clip-rule="nonzero"/></clipPath><clipPath id="e3d8e2bf53"><path d="M 4 0.84375 L 307 0.84375 C 307.996094 0.84375 308.949219 1.238281 309.652344 1.941406 C 310.355469 2.644531 310.75 3.597656 310.75 4.59375 L 310.75 24.027344 C 310.75 25.023438 310.355469 25.976562 309.652344 26.679688 C 308.949219 27.382812 307.996094 27.777344 307 27.777344 L 4 27.777344 C 3.003906 27.777344 2.050781 27.382812 1.347656 26.679688 C 0.644531 25.976562 0.25 25.023438 0.25 24.027344 L 0.25 4.59375 C 0.25 3.597656 0.644531 2.644531 1.347656 1.941406 C 2.050781 1.238281 3.003906 0.84375 4 0.84375 Z M 4 0.84375 " clip-rule="nonzero"/></clipPath><clipPath id="3b4158a52d"><rect x="0" width="311" y="0" height="28"/></clipPath><clipPath id="787e5aeb09"><path d="M 84.015625 156.066406 L 114.015625 156.066406 L 114.015625 186.066406 L 84.015625 186.066406 Z M 84.015625 156.066406 " clip-rule="nonzero"/></clipPath><clipPath id="ac5958922f"><path d="M 232.363281 198.433594 L 341.191406 198.433594 L 341.191406 222.1875 L 232.363281 222.1875 Z M 232.363281 198.433594 " clip-rule="nonzero"/></clipPath><clipPath id="94c8bf848f"><path d="M 235.363281 198.433594 L 338.1875 198.433594 C 339.84375 198.433594 341.1875 199.777344 341.1875 201.433594 L 341.1875 219.1875 C 341.1875 220.84375 339.84375 222.1875 338.1875 222.1875 L 235.363281 222.1875 C 233.707031 222.1875 232.363281 220.84375 232.363281 219.1875 L 232.363281 201.433594 C 232.363281 199.777344 233.707031 198.433594 235.363281 198.433594 Z M 235.363281 198.433594 " clip-rule="nonzero"/></clipPath><clipPath id="5a66a673c4"><path d="M 0.363281 0.433594 L 109.191406 0.433594 L 109.191406 24.1875 L 0.363281 24.1875 Z M 0.363281 0.433594 " clip-rule="nonzero"/></clipPath><clipPath id="9be33a8651"><path d="M 3.363281 0.433594 L 106.1875 0.433594 C 107.84375 0.433594 109.1875 1.777344 109.1875 3.433594 L 109.1875 21.1875 C 109.1875 22.84375 107.84375 24.1875 106.1875 24.1875 L 3.363281 24.1875 C 1.707031 24.1875 0.363281 22.84375 0.363281 21.1875 L 0.363281 3.433594 C 0.363281 1.777344 1.707031 0.433594 3.363281 0.433594 Z M 3.363281 0.433594 " clip-rule="nonzero"/></clipPath><clipPath id="f1c608aade"><rect x="0" width="110" y="0" height="25"/></clipPath><clipPath id="5d8e95898d"><rect x="0" width="46" y="0" height="61"/></clipPath><clipPath id="bc08527c60"><rect x="0" width="46" y="0" height="63"/></clipPath><clipPath id="ac950f0972"><rect x="0" width="46" y="0" height="63"/></clipPath><clipPath id="3ef5387d3f"><rect x="0" width="46" y="0" height="63"/></clipPath><clipPath id="c6993e6626"><rect x="0" width="177" y="0" height="18"/></clipPath></defs><g transform="matrix(1, 0, 0, 1, 121, 139)"><g clip-path="url(#fd4310ff79)"><g fill="#efecce" fill-opacity="1"><g transform="translate(1.037946, 51.453385)"><g><path d="M 10.1875 0 L 2.03125 0 L 2.03125 -36.671875 C 2.03125 -37.796875 2.429688 -38.753906 3.234375 -39.546875 C 4.035156 -40.347656 4.992188 -40.75 6.109375 -40.75 C 7.234375 -40.75 8.203125 -40.34375 9.015625 -39.53125 L 34.640625 -13.90625 L 34.640625 -40.75 L 42.78125 -40.75 L 42.78125 -4.078125 C 42.78125 -2.953125 42.378906 -1.988281 41.578125 -1.1875 C 40.785156 -0.394531 39.832031 0 38.71875 0 C 37.59375 0 36.625 -0.40625 35.8125 -1.21875 L 10.1875 -26.84375 Z M 10.1875 0 "/></g></g></g></g></g><g transform="matrix(1, 0, 0, 1, 76, 139)"><g clip-path="url(#6bee30631f)"><g fill="#efecce" fill-opacity="1"><g transform="translate(0.422026, 51.453385)"><g><path d="M 34.640625 0 L 10.1875 0 C 8.695312 0 7.332031 -0.363281 6.09375 -1.09375 C 4.851562 -1.820312 3.863281 -2.804688 3.125 -4.046875 C 2.394531 -5.285156 2.03125 -6.65625 2.03125 -8.15625 L 2.03125 -32.59375 C 2.03125 -34.09375 2.394531 -35.460938 3.125 -36.703125 C 3.863281 -37.941406 4.851562 -38.925781 6.09375 -39.65625 C 7.332031 -40.382812 8.695312 -40.75 10.1875 -40.75 L 34.640625 -40.75 C 36.128906 -40.75 37.492188 -40.382812 38.734375 -39.65625 C 39.972656 -38.925781 40.957031 -37.941406 41.6875 -36.703125 C 42.414062 -35.460938 42.78125 -34.09375 42.78125 -32.59375 L 42.78125 -8.15625 C 42.78125 -6.6875 42.414062 -5.332031 41.6875 -4.09375 C 40.957031 -2.851562 39.976562 -1.859375 38.75 -1.109375 C 37.53125 -0.367188 36.160156 0 34.640625 0 Z M 10.1875 -32.59375 L 10.1875 -8.15625 L 34.640625 -8.15625 L 34.640625 -32.59375 Z M 10.1875 -32.59375 "/></g></g></g></g></g><g clip-path="url(#642037c638)"><g clip-path="url(#afd26c9361)"><g transform="matrix(1, 0, 0, 1, 84, 155)"><g clip-path="url(#da27774932)"><g clip-path="url(#d9d6bc991a)"><g clip-path="url(#ecb60ba62b)"><path fill="#efecce" d="M 0.015625 0.339844 L 29.460938 0.339844 L 29.460938 28.570312 L 0.015625 28.570312 Z M 0.015625 0.339844 " fill-opacity="1" fill-rule="nonzero"/></g></g></g></g></g></g><g transform="matrix(1, 0, 0, 1, 165, 139)"><g clip-path="url(#16039ff2e7)"><g fill="#efecce" fill-opacity="1"><g transform="translate(0.244125, 51.453385)"><g><path d="M 42.78125 -40.75 L 42.78125 -32.59375 L 26.484375 -32.59375 L 26.484375 0 L 18.34375 0 L 18.34375 -32.59375 L 2.03125 -32.59375 L 2.03125 -40.75 Z M 42.78125 -40.75 "/></g></g></g></g></g><g clip-path="url(#7b5de6f8b6)"><g clip-path="url(#b05dee70a4)"><g transform="matrix(1, 0, 0, 1, 32, 196)"><g clip-path="url(#3b4158a52d)"><g clip-path="url(#870d85b4d6)"><g clip-path="url(#e3d8e2bf53)"><path fill="#efecce" d="M 0.25 0.84375 L 310.726562 0.84375 L 310.726562 27.777344 L 0.25 27.777344 Z M 0.25 0.84375 " fill-opacity="1" fill-rule="nonzero"/></g></g></g></g></g></g><g clip-path="url(#787e5aeb09)"><path fill="#315b46" d="M 99.230469 183.417969 C 92.425781 183.417969 86.910156 177.910156 86.910156 171.113281 C 86.910156 164.316406 92.425781 158.804688 99.230469 158.804688 C 106.035156 158.804688 111.550781 164.316406 111.550781 171.113281 C 111.550781 177.910156 106.035156 183.417969 99.230469 183.417969 Z M 99.066406 156.082031 C 90.753906 156.082031 84.019531 162.8125 84.019531 171.113281 C 84.019531 179.414062 90.753906 186.144531 99.066406 186.144531 C 107.375 186.144531 114.109375 179.414062 114.109375 171.113281 C 114.109375 162.8125 107.375 156.082031 99.066406 156.082031 " fill-opacity="1" fill-rule="nonzero"/></g><path fill="#efecce" d="M 99.0625 182.066406 C 92.992188 182.066406 88.066406 177.164062 88.066406 171.113281 C 88.066406 165.0625 92.992188 160.160156 99.0625 160.160156 C 105.136719 160.160156 110.058594 165.0625 110.058594 171.113281 C 110.058594 177.164062 105.136719 182.066406 99.0625 182.066406 Z M 99.066406 157.191406 C 91.347656 157.191406 85.089844 163.425781 85.089844 171.113281 C 85.089844 178.804688 91.347656 185.035156 99.066406 185.035156 C 106.78125 185.035156 113.039062 178.804688 113.039062 171.113281 C 113.039062 163.425781 106.78125 157.191406 99.066406 157.191406 " fill-opacity="1" fill-rule="nonzero"/><path fill="#315b46" d="M 99.0625 181.636719 C 93.308594 181.636719 88.644531 176.925781 88.644531 171.113281 C 88.644531 165.300781 93.308594 160.589844 99.0625 160.589844 C 104.816406 160.589844 109.484375 165.300781 109.484375 171.113281 C 109.484375 176.925781 104.816406 181.636719 99.0625 181.636719 Z M 99.066406 157.738281 C 91.75 157.738281 85.820312 163.726562 85.820312 171.113281 C 85.820312 178.5 91.75 184.488281 99.066406 184.488281 C 106.378906 184.488281 112.308594 178.5 112.308594 171.113281 C 112.308594 163.726562 106.378906 157.738281 99.066406 157.738281 " fill-opacity="1" fill-rule="nonzero"/><path fill="#315b46" d="M 99.0625 160.636719 C 93.34375 160.636719 88.691406 165.335938 88.691406 171.113281 C 88.691406 176.890625 93.34375 181.589844 99.0625 181.589844 C 104.78125 181.589844 109.433594 176.890625 109.433594 171.113281 C 109.433594 165.335938 104.78125 160.636719 99.0625 160.636719 Z M 99.0625 181.6875 C 93.292969 181.6875 88.59375 176.941406 88.59375 171.113281 C 88.59375 165.285156 93.292969 160.539062 99.0625 160.539062 C 104.835938 160.539062 109.53125 165.285156 109.53125 171.113281 C 109.53125 176.941406 104.835938 181.6875 99.0625 181.6875 Z M 99.066406 157.785156 C 91.789062 157.785156 85.871094 163.765625 85.871094 171.113281 C 85.871094 178.460938 91.789062 184.441406 99.066406 184.441406 C 106.339844 184.441406 112.257812 178.460938 112.257812 171.113281 C 112.257812 163.765625 106.339844 157.785156 99.066406 157.785156 Z M 99.066406 184.539062 C 91.734375 184.539062 85.773438 178.515625 85.773438 171.113281 C 85.773438 163.710938 91.734375 157.691406 99.066406 157.691406 C 106.394531 157.691406 112.355469 163.710938 112.355469 171.113281 C 112.355469 178.515625 106.394531 184.539062 99.066406 184.539062 " fill-opacity="1" fill-rule="nonzero"/><path fill="#efecce" d="M 99.066406 182.117188 C 93.007812 182.117188 88.101562 177.191406 88.101562 171.113281 C 88.101562 165.035156 93.007812 160.109375 99.066406 160.109375 C 105.117188 160.109375 110.023438 165.035156 110.023438 171.113281 C 110.023438 177.191406 105.117188 182.117188 99.066406 182.117188 Z M 99.066406 158.46875 C 92.109375 158.46875 86.46875 164.128906 86.46875 171.113281 C 86.46875 178.097656 92.109375 183.757812 99.066406 183.757812 C 106.019531 183.757812 111.660156 178.097656 111.660156 171.113281 C 111.660156 164.128906 106.019531 158.46875 99.066406 158.46875 " fill-opacity="1" fill-rule="nonzero"/><path fill="#315b46" d="M 94.628906 168.675781 C 97.421875 165.449219 101.585938 163.160156 103.695312 162.132812 C 102.269531 161.382812 100.679688 160.992188 99.066406 160.992188 C 98.054688 160.992188 97.222656 161.09375 96.265625 161.390625 C 95.296875 163.878906 94.757812 167.199219 94.628906 168.675781 " fill-opacity="1" fill-rule="nonzero"/><path fill="#315b46" d="M 90.496094 165.851562 C 91.417969 168.238281 93 170.851562 94 172.035156 C 93.890625 168.261719 94.992188 164.046875 95.785156 161.546875 C 93.445312 162.367188 91.6875 163.644531 90.496094 165.851562 " fill-opacity="1" fill-rule="nonzero"/><path fill="#315b46" d="M 89.039062 171.113281 C 89.039062 171.933594 89.078125 172.484375 89.269531 173.273438 C 91.585938 174.535156 94.863281 175.328125 96.265625 175.507812 C 93.589844 172.667969 91.382812 168.808594 90.164062 166.453125 C 89.429688 167.886719 89.039062 169.488281 89.039062 171.113281 " fill-opacity="1" fill-rule="nonzero"/><path fill="#315b46" d="M 89.414062 173.847656 C 90.1875 176.632812 91.878906 178.863281 94.480469 180.117188 C 96.835938 179.109375 99.394531 177.222656 100.367188 176.292969 C 100.128906 176.308594 99.886719 176.316406 99.640625 176.316406 C 95.824219 176.316406 91.757812 174.855469 89.414062 173.847656 " fill-opacity="1" fill-rule="nonzero"/><path fill="#315b46" d="M 95.035156 180.386719 C 96.304688 180.949219 97.660156 181.234375 99.066406 181.234375 C 100.457031 181.234375 101.507812 181.078125 102.773438 180.523438 C 103.433594 178.042969 103.683594 174.878906 103.621094 173.496094 C 101.367188 176.691406 97.488281 179.089844 95.035156 180.386719 " fill-opacity="1" fill-rule="nonzero"/><path fill="#315b46" d="M 107.667969 176.3125 C 106.699219 173.941406 104.921875 171.3125 104.011719 170.277344 C 104.273438 173.996094 103.726562 177.945312 103.300781 180.289062 C 105.203125 179.390625 106.636719 178.171875 107.667969 176.3125 " fill-opacity="1" fill-rule="nonzero"/><path fill="#315b46" d="M 101.847656 167.148438 C 104.636719 169.792969 106.785156 173.5 107.957031 175.789062 C 108.699219 174.351562 109.085938 172.746094 109.085938 171.113281 C 109.085938 170.367188 109.0625 169.882812 108.902344 169.15625 C 106.535156 168.007812 103.277344 167.300781 101.847656 167.148438 " fill-opacity="1" fill-rule="nonzero"/><path fill="#315b46" d="M 104.234375 162.441406 C 101.640625 163.277344 98.78125 165.433594 97.65625 166.441406 C 97.976562 166.421875 98.304688 166.410156 98.644531 166.410156 C 102.421875 166.410156 106.453125 167.691406 108.769531 168.566406 C 108.097656 165.953125 106.566406 163.800781 104.234375 162.441406 " fill-opacity="1" fill-rule="nonzero"/><path fill="#315b46" d="M 85.871094 171.113281 C 85.871094 163.765625 91.789062 157.785156 99.066406 157.785156 C 102.835938 157.785156 106.238281 159.390625 108.644531 161.960938 L 108.6875 161.925781 C 106.273438 159.347656 102.855469 157.738281 99.066406 157.738281 C 91.75 157.738281 85.820312 163.726562 85.820312 171.113281 C 85.820312 173.582031 86.484375 175.890625 87.636719 177.875 L 87.679688 177.84375 C 86.53125 175.867188 85.871094 173.566406 85.871094 171.113281 " fill-opacity="1" fill-rule="nonzero"/><g clip-path="url(#ac5958922f)"><g clip-path="url(#94c8bf848f)"><g transform="matrix(1, 0, 0, 1, 232, 198)"><g clip-path="url(#f1c608aade)"><g clip-path="url(#5a66a673c4)"><g clip-path="url(#9be33a8651)"><path fill="#315b46" d="M 0.363281 0.433594 L 109.191406 0.433594 L 109.191406 24.1875 L 0.363281 24.1875 Z M 0.363281 0.433594 " fill-opacity="1" fill-rule="nonzero"/></g></g></g></g></g></g><g transform="matrix(1, 0, 0, 1, 31, 141)"><g clip-path="url(#5d8e95898d)"><g fill="#efecce" fill-opacity="1"><g transform="translate(0.217339, 49.51516)"><g><path d="M 42.359375 0 L 10.078125 0 C 8.597656 0 7.242188 -0.359375 6.015625 -1.078125 C 4.796875 -1.804688 3.820312 -2.78125 3.09375 -4 C 2.375 -5.226562 2.015625 -6.582031 2.015625 -8.0625 L 2.015625 -32.265625 C 2.015625 -33.742188 2.375 -35.097656 3.09375 -36.328125 C 3.820312 -37.554688 4.796875 -38.53125 6.015625 -39.25 C 7.242188 -39.976562 8.597656 -40.34375 10.078125 -40.34375 L 42.359375 -40.34375 L 42.359375 -32.265625 L 10.078125 -32.265625 L 10.078125 -8.0625 L 42.359375 -8.0625 Z M 42.359375 0 "/></g></g></g></g></g><g transform="matrix(1, 0, 0, 1, 209, 139)"><g clip-path="url(#bc08527c60)"><g fill="#efecce" fill-opacity="1"><g transform="translate(0.28336, 51.453385)"><g><path d="M 42.78125 -40.75 L 42.78125 -32.59375 L 10.1875 -32.59375 L 10.1875 -24.453125 L 42.78125 -24.453125 L 42.78125 -16.296875 L 10.1875 -16.296875 L 10.1875 -8.15625 L 42.78125 -8.15625 L 42.78125 0 L 10.1875 0 C 8.695312 0 7.332031 -0.363281 6.09375 -1.09375 C 4.851562 -1.820312 3.863281 -2.804688 3.125 -4.046875 C 2.394531 -5.285156 2.03125 -6.65625 2.03125 -8.15625 L 2.03125 -32.59375 C 2.03125 -34.09375 2.394531 -35.460938 3.125 -36.703125 C 3.863281 -37.941406 4.851562 -38.925781 6.09375 -39.65625 C 7.332031 -40.382812 8.695312 -40.75 10.1875 -40.75 Z M 42.78125 -40.75 "/></g></g></g></g></g><g transform="matrix(1, 0, 0, 1, 255, 139)"><g clip-path="url(#ac950f0972)"><g fill="#efecce" fill-opacity="1"><g transform="translate(0.526746, 51.453385)"><g><path d="M 10.1875 0 L 2.03125 0 L 2.03125 -36.671875 C 2.03125 -37.796875 2.429688 -38.753906 3.234375 -39.546875 C 4.035156 -40.347656 4.992188 -40.75 6.109375 -40.75 C 7.234375 -40.75 8.203125 -40.34375 9.015625 -39.53125 L 34.640625 -13.90625 L 34.640625 -40.75 L 42.78125 -40.75 L 42.78125 -4.078125 C 42.78125 -2.953125 42.378906 -1.988281 41.578125 -1.1875 C 40.785156 -0.394531 39.832031 0 38.71875 0 C 37.59375 0 36.625 -0.40625 35.8125 -1.21875 L 10.1875 -26.84375 Z M 10.1875 0 "/></g></g></g></g></g><g transform="matrix(1, 0, 0, 1, 299, 139)"><g clip-path="url(#3ef5387d3f)"><g fill="#efecce" fill-opacity="1"><g transform="translate(0.592788, 51.453385)"><g><path d="M 42.78125 -40.75 L 42.78125 -32.59375 L 26.484375 -32.59375 L 26.484375 0 L 18.34375 0 L 18.34375 -32.59375 L 2.03125 -32.59375 L 2.03125 -40.75 Z M 42.78125 -40.75 "/></g></g></g></g></g><g transform="matrix(1, 0, 0, 1, 36, 202)"><g clip-path="url(#c6993e6626)"><g fill="#315b46" fill-opacity="1"><g transform="translate(1.500002, 13.604045)"><g><path d="M 11.960938 -11.160156 L 11.960938 -8.683594 L 2.789062 -8.683594 L 2.789062 -8.929688 L 3.035156 -8.929688 L 3.035156 -6.695312 L 2.789062 -6.695312 L 2.789062 -6.941406 L 9.484375 -6.941406 C 9.9375 -6.941406 10.355469 -6.828125 10.734375 -6.605469 C 11.109375 -6.386719 11.40625 -6.085938 11.628906 -5.710938 C 11.851562 -5.332031 11.960938 -4.917969 11.960938 -4.464844 L 11.960938 -2.230469 C 11.960938 -1.777344 11.851562 -1.363281 11.628906 -0.984375 C 11.40625 -0.609375 11.109375 -0.3125 10.734375 -0.0898438 C 10.355469 0.132812 9.9375 0.246094 9.484375 0.246094 L 0.3125 0.246094 L 0.3125 -2.476562 L 9.484375 -2.476562 L 9.484375 -2.230469 L 9.242188 -2.230469 L 9.242188 -4.464844 L 9.484375 -4.464844 L 9.484375 -4.21875 L 2.789062 -4.21875 C 2.335938 -4.21875 1.921875 -4.332031 1.542969 -4.554688 C 1.167969 -4.773438 0.867188 -5.074219 0.648438 -5.449219 C 0.425781 -5.828125 0.3125 -6.242188 0.3125 -6.695312 L 0.3125 -8.929688 C 0.3125 -9.382812 0.425781 -9.796875 0.648438 -10.175781 C 0.867188 -10.550781 1.167969 -10.847656 1.542969 -11.070312 C 1.921875 -11.292969 2.335938 -11.402344 2.789062 -11.402344 L 11.960938 -11.402344 Z M 11.472656 -11.160156 L 11.71875 -11.160156 L 11.71875 -10.914062 L 2.789062 -10.914062 C 2.425781 -10.914062 2.09375 -10.828125 1.789062 -10.648438 C 1.488281 -10.472656 1.246094 -10.230469 1.066406 -9.925781 C 0.890625 -9.625 0.800781 -9.292969 0.800781 -8.929688 L 0.800781 -6.695312 C 0.800781 -6.332031 0.890625 -5.996094 1.066406 -5.695312 C 1.246094 -5.394531 1.488281 -5.152344 1.789062 -4.972656 C 2.09375 -4.796875 2.425781 -4.707031 2.789062 -4.707031 L 9.730469 -4.707031 L 9.730469 -1.988281 L 0.558594 -1.988281 L 0.558594 -2.230469 L 0.800781 -2.230469 L 0.800781 0 L 0.558594 0 L 0.558594 -0.246094 L 9.484375 -0.246094 C 9.851562 -0.246094 10.183594 -0.332031 10.484375 -0.511719 C 10.789062 -0.6875 11.027344 -0.929688 11.207031 -1.234375 C 11.386719 -1.535156 11.472656 -1.867188 11.472656 -2.230469 L 11.472656 -4.464844 C 11.472656 -4.828125 11.386719 -5.160156 11.207031 -5.464844 C 11.027344 -5.765625 10.789062 -6.007812 10.484375 -6.1875 C 10.183594 -6.363281 9.851562 -6.453125 9.484375 -6.453125 L 2.546875 -6.453125 L 2.546875 -9.171875 L 11.71875 -9.171875 L 11.71875 -8.929688 L 11.472656 -8.929688 Z M 11.472656 -11.160156 "/></g></g></g><g fill="#315b46" fill-opacity="1"><g transform="translate(20.675063, 13.604045)"><g><path d="M 11.71875 0.246094 L 2.789062 0.246094 C 2.335938 0.246094 1.921875 0.132812 1.542969 -0.0898438 C 1.167969 -0.3125 0.867188 -0.609375 0.648438 -0.984375 C 0.425781 -1.363281 0.3125 -1.777344 0.3125 -2.230469 L 0.3125 -8.929688 C 0.3125 -9.382812 0.425781 -9.796875 0.648438 -10.175781 C 0.867188 -10.550781 1.167969 -10.847656 1.542969 -11.070312 C 1.921875 -11.292969 2.335938 -11.402344 2.789062 -11.402344 L 11.960938 -11.402344 L 11.960938 -8.683594 L 2.789062 -8.683594 L 2.789062 -8.929688 L 3.035156 -8.929688 L 3.035156 -2.230469 L 2.789062 -2.230469 L 2.789062 -2.476562 L 11.960938 -2.476562 L 11.960938 0.246094 Z M 11.71875 -0.246094 L 11.71875 0 L 11.472656 0 L 11.472656 -2.230469 L 11.71875 -2.230469 L 11.71875 -1.988281 L 2.546875 -1.988281 L 2.546875 -9.171875 L 11.71875 -9.171875 L 11.71875 -8.929688 L 11.472656 -8.929688 L 11.472656 -11.160156 L 11.71875 -11.160156 L 11.71875 -10.914062 L 2.789062 -10.914062 C 2.425781 -10.914062 2.09375 -10.828125 1.789062 -10.648438 C 1.488281 -10.472656 1.246094 -10.230469 1.066406 -9.925781 C 0.890625 -9.625 0.800781 -9.292969 0.800781 -8.929688 L 0.800781 -2.230469 C 0.800781 -1.867188 0.890625 -1.535156 1.066406 -1.234375 C 1.246094 -0.929688 1.488281 -0.6875 1.789062 -0.511719 C 2.09375 -0.332031 2.425781 -0.246094 2.789062 -0.246094 Z M 11.71875 -0.246094 "/></g></g></g><g fill="#315b46" fill-opacity="1"><g transform="translate(39.850124, 13.604045)"><g><path d="M 2.789062 -11.402344 L 9.484375 -11.402344 C 9.9375 -11.402344 10.355469 -11.292969 10.734375 -11.070312 C 11.109375 -10.847656 11.40625 -10.550781 11.628906 -10.175781 C 11.851562 -9.796875 11.960938 -9.382812 11.960938 -8.929688 L 11.960938 0.246094 L 9.242188 0.246094 L 9.242188 -4.464844 L 9.484375 -4.464844 L 9.484375 -4.21875 L 2.789062 -4.21875 L 2.789062 -4.464844 L 3.035156 -4.464844 L 3.035156 0.246094 L 0.3125 0.246094 L 0.3125 -8.929688 C 0.3125 -9.382812 0.425781 -9.796875 0.648438 -10.175781 C 0.867188 -10.550781 1.167969 -10.847656 1.542969 -11.070312 C 1.921875 -11.292969 2.335938 -11.402344 2.789062 -11.402344 Z M 2.789062 -10.914062 C 2.425781 -10.914062 2.09375 -10.828125 1.789062 -10.648438 C 1.488281 -10.472656 1.246094 -10.230469 1.066406 -9.925781 C 0.890625 -9.625 0.800781 -9.292969 0.800781 -8.929688 L 0.800781 0 L 0.558594 0 L 0.558594 -0.246094 L 2.789062 -0.246094 L 2.789062 0 L 2.546875 0 L 2.546875 -4.707031 L 9.730469 -4.707031 L 9.730469 0 L 9.484375 0 L 9.484375 -0.246094 L 11.71875 -0.246094 L 11.71875 0 L 11.472656 0 L 11.472656 -8.929688 C 11.472656 -9.292969 11.386719 -9.625 11.207031 -9.925781 C 11.027344 -10.230469 10.789062 -10.472656 10.484375 -10.648438 C 10.183594 -10.828125 9.851562 -10.914062 9.484375 -10.914062 Z M 3.035156 -8.929688 L 3.035156 -6.695312 L 2.789062 -6.695312 L 2.789062 -6.941406 L 9.484375 -6.941406 L 9.484375 -6.695312 L 9.242188 -6.695312 L 9.242188 -8.929688 L 9.484375 -8.929688 L 9.484375 -8.683594 L 2.789062 -8.683594 L 2.789062 -8.929688 Z M 2.546875 -9.171875 L 9.730469 -9.171875 L 9.730469 -6.453125 L 2.546875 -6.453125 Z M 2.546875 -9.171875 "/></g></g></g><g fill="#315b46" fill-opacity="1"><g transform="translate(59.025185, 13.604045)"><g><path d="M 11.71875 0.246094 L 2.789062 0.246094 C 2.335938 0.246094 1.921875 0.132812 1.542969 -0.0898438 C 1.167969 -0.3125 0.867188 -0.609375 0.648438 -0.984375 C 0.425781 -1.363281 0.3125 -1.777344 0.3125 -2.230469 L 0.3125 -11.402344 L 3.035156 -11.402344 L 3.035156 -2.230469 L 2.789062 -2.230469 L 2.789062 -2.476562 L 11.960938 -2.476562 L 11.960938 0.246094 Z M 11.71875 -0.246094 L 11.71875 0 L 11.472656 0 L 11.472656 -2.230469 L 11.71875 -2.230469 L 11.71875 -1.988281 L 2.546875 -1.988281 L 2.546875 -11.160156 L 2.789062 -11.160156 L 2.789062 -10.914062 L 0.558594 -10.914062 L 0.558594 -11.160156 L 0.800781 -11.160156 L 0.800781 -2.230469 C 0.800781 -1.867188 0.890625 -1.535156 1.066406 -1.234375 C 1.246094 -0.929688 1.488281 -0.6875 1.789062 -0.511719 C 2.09375 -0.332031 2.425781 -0.246094 2.789062 -0.246094 Z M 11.71875 -0.246094 "/></g></g></g><g fill="#315b46" fill-opacity="1"><g transform="translate(78.200246, 13.604045)"><g><path d="M 11.960938 -11.160156 L 11.960938 -8.683594 L 2.789062 -8.683594 L 2.789062 -8.929688 L 3.035156 -8.929688 L 3.035156 -6.695312 L 2.789062 -6.695312 L 2.789062 -6.941406 L 11.960938 -6.941406 L 11.960938 -4.21875 L 2.789062 -4.21875 L 2.789062 -4.464844 L 3.035156 -4.464844 L 3.035156 -2.230469 L 2.789062 -2.230469 L 2.789062 -2.476562 L 11.960938 -2.476562 L 11.960938 0.246094 L 2.789062 0.246094 C 2.335938 0.246094 1.921875 0.132812 1.542969 -0.0898438 C 1.167969 -0.3125 0.867188 -0.609375 0.648438 -0.984375 C 0.425781 -1.363281 0.3125 -1.777344 0.3125 -2.230469 L 0.3125 -8.929688 C 0.3125 -9.382812 0.425781 -9.796875 0.648438 -10.175781 C 0.867188 -10.550781 1.167969 -10.847656 1.542969 -11.070312 C 1.921875 -11.292969 2.335938 -11.402344 2.789062 -11.402344 L 11.960938 -11.402344 Z M 11.472656 -11.160156 L 11.71875 -11.160156 L 11.71875 -10.914062 L 2.789062 -10.914062 C 2.425781 -10.914062 2.09375 -10.828125 1.789062 -10.648438 C 1.488281 -10.472656 1.246094 -10.230469 1.066406 -9.925781 C 0.890625 -9.625 0.800781 -9.292969 0.800781 -8.929688 L 0.800781 -2.230469 C 0.800781 -1.867188 0.890625 -1.535156 1.066406 -1.234375 C 1.246094 -0.929688 1.488281 -0.6875 1.789062 -0.511719 C 2.09375 -0.332031 2.425781 -0.246094 2.789062 -0.246094 L 11.71875 -0.246094 L 11.71875 0 L 11.472656 0 L 11.472656 -2.230469 L 11.71875 -2.230469 L 11.71875 -1.988281 L 2.546875 -1.988281 L 2.546875 -4.707031 L 11.71875 -4.707031 L 11.71875 -4.464844 L 11.472656 -4.464844 L 11.472656 -6.695312 L 11.71875 -6.695312 L 11.71875 -6.453125 L 2.546875 -6.453125 L 2.546875 -9.171875 L 11.71875 -9.171875 L 11.71875 -8.929688 L 11.472656 -8.929688 Z M 11.472656 -11.160156 "/></g></g></g><g fill="#315b46" fill-opacity="1"><g transform="translate(97.376475, 13.604045)"><g/></g></g><g fill="#315b46" fill-opacity="1"><g transform="translate(110.417288, 13.604045)"><g/></g></g><g fill="#315b46" fill-opacity="1"><g transform="translate(123.458102, 13.604045)"><g/></g></g><g fill="#315b46" fill-opacity="1"><g transform="translate(136.498916, 13.604045)"><g/></g></g><g fill="#315b46" fill-opacity="1"><g transform="translate(149.539729, 13.604045)"><g/></g></g><g fill="#315b46" fill-opacity="1"><g transform="translate(162.580543, 13.604045)"><g/></g></g><g fill="#315b46" fill-opacity="1"><g transform="translate(1.500002, 13.604045)"><g><path d="M 11.71875 -11.15625 L 11.71875 -8.9375 L 2.796875 -8.9375 L 2.796875 -6.703125 L 9.484375 -6.703125 C 9.898438 -6.703125 10.273438 -6.597656 10.609375 -6.390625 C 10.953125 -6.191406 11.222656 -5.921875 11.421875 -5.578125 C 11.617188 -5.242188 11.71875 -4.875 11.71875 -4.46875 L 11.71875 -2.234375 C 11.71875 -1.828125 11.617188 -1.453125 11.421875 -1.109375 C 11.222656 -0.765625 10.953125 -0.492188 10.609375 -0.296875 C 10.273438 -0.0976562 9.898438 0 9.484375 0 L 0.5625 0 L 0.5625 -2.234375 L 9.484375 -2.234375 L 9.484375 -4.46875 L 2.796875 -4.46875 C 2.378906 -4.46875 2 -4.566406 1.65625 -4.765625 C 1.320312 -4.960938 1.054688 -5.226562 0.859375 -5.5625 C 0.660156 -5.90625 0.5625 -6.285156 0.5625 -6.703125 L 0.5625 -8.9375 C 0.5625 -9.34375 0.660156 -9.710938 0.859375 -10.046875 C 1.054688 -10.390625 1.320312 -10.660156 1.65625 -10.859375 C 2 -11.054688 2.378906 -11.15625 2.796875 -11.15625 Z M 11.71875 -11.15625 "/></g></g></g><g fill="#315b46" fill-opacity="1"><g transform="translate(20.675063, 13.604045)"><g><path d="M 11.71875 0 L 2.796875 0 C 2.378906 0 2 -0.0976562 1.65625 -0.296875 C 1.320312 -0.492188 1.054688 -0.765625 0.859375 -1.109375 C 0.660156 -1.453125 0.5625 -1.828125 0.5625 -2.234375 L 0.5625 -8.9375 C 0.5625 -9.34375 0.660156 -9.710938 0.859375 -10.046875 C 1.054688 -10.390625 1.320312 -10.660156 1.65625 -10.859375 C 2 -11.054688 2.378906 -11.15625 2.796875 -11.15625 L 11.71875 -11.15625 L 11.71875 -8.9375 L 2.796875 -8.9375 L 2.796875 -2.234375 L 11.71875 -2.234375 Z M 11.71875 0 "/></g></g></g><g fill="#315b46" fill-opacity="1"><g transform="translate(39.850124, 13.604045)"><g><path d="M 2.796875 -11.15625 L 9.484375 -11.15625 C 9.898438 -11.15625 10.273438 -11.054688 10.609375 -10.859375 C 10.953125 -10.660156 11.222656 -10.390625 11.421875 -10.046875 C 11.617188 -9.710938 11.71875 -9.34375 11.71875 -8.9375 L 11.71875 0 L 9.484375 0 L 9.484375 -4.46875 L 2.796875 -4.46875 L 2.796875 0 L 0.5625 0 L 0.5625 -8.9375 C 0.5625 -9.34375 0.660156 -9.710938 0.859375 -10.046875 C 1.054688 -10.390625 1.320312 -10.660156 1.65625 -10.859375 C 2 -11.054688 2.378906 -11.15625 2.796875 -11.15625 Z M 2.796875 -8.9375 L 2.796875 -6.703125 L 9.484375 -6.703125 L 9.484375 -8.9375 Z M 2.796875 -8.9375 "/></g></g></g><g fill="#315b46" fill-opacity="1"><g transform="translate(59.025185, 13.604045)"><g><path d="M 11.71875 0 L 2.796875 0 C 2.378906 0 2 -0.0976562 1.65625 -0.296875 C 1.320312 -0.492188 1.054688 -0.765625 0.859375 -1.109375 C 0.660156 -1.453125 0.5625 -1.828125 0.5625 -2.234375 L 0.5625 -11.15625 L 2.796875 -11.15625 L 2.796875 -2.234375 L 11.71875 -2.234375 Z M 11.71875 0 "/></g></g></g><g fill="#315b46" fill-opacity="1"><g transform="translate(78.200246, 13.604045)"><g><path d="M 11.71875 -11.15625 L 11.71875 -8.9375 L 2.796875 -8.9375 L 2.796875 -6.703125 L 11.71875 -6.703125 L 11.71875 -4.46875 L 2.796875 -4.46875 L 2.796875 -2.234375 L 11.71875 -2.234375 L 11.71875 0 L 2.796875 0 C 2.378906 0 2 -0.0976562 1.65625 -0.296875 C 1.320312 -0.492188 1.054688 -0.765625 0.859375 -1.109375 C 0.660156 -1.453125 0.5625 -1.828125 0.5625 -2.234375 L 0.5625 -8.9375 C 0.5625 -9.34375 0.660156 -9.710938 0.859375 -10.046875 C 1.054688 -10.390625 1.320312 -10.660156 1.65625 -10.859375 C 2 -11.054688 2.378906 -11.15625 2.796875 -11.15625 Z M 11.71875 -11.15625 "/></g></g></g><g fill="#315b46" fill-opacity="1"><g transform="translate(97.376475, 13.604045)"><g/></g></g><g fill="#315b46" fill-opacity="1"><g transform="translate(110.417288, 13.604045)"><g/></g></g><g fill="#315b46" fill-opacity="1"><g transform="translate(123.458102, 13.604045)"><g/></g></g><g fill="#315b46" fill-opacity="1"><g transform="translate(136.498916, 13.604045)"><g/></g></g><g fill="#315b46" fill-opacity="1"><g transform="translate(149.539729, 13.604045)"><g/></g></g><g fill="#315b46" fill-opacity="1"><g transform="translate(162.580543, 13.604045)"><g/></g></g></g></g><g fill="#315b46" fill-opacity="1"><g transform="translate(242.214598, 215.56081)"><g><path d="M 2.789062 -11.402344 L 9.484375 -11.402344 C 9.941406 -11.402344 10.355469 -11.292969 10.734375 -11.070312 C 11.109375 -10.847656 11.40625 -10.550781 11.628906 -10.175781 C 11.851562 -9.796875 11.960938 -9.382812 11.960938 -8.929688 L 11.960938 0.246094 L 9.242188 0.246094 L 9.242188 -8.929688 L 9.484375 -8.929688 L 9.484375 -8.683594 L 7.253906 -8.683594 L 7.253906 -8.929688 L 7.5 -8.929688 L 7.5 0.246094 L 4.777344 0.246094 L 4.777344 -8.929688 L 5.023438 -8.929688 L 5.023438 -8.683594 L 2.789062 -8.683594 L 2.789062 -8.929688 L 3.035156 -8.929688 L 3.035156 0.246094 L 0.3125 0.246094 L 0.3125 -8.929688 C 0.3125 -9.382812 0.425781 -9.796875 0.648438 -10.175781 C 0.867188 -10.550781 1.167969 -10.847656 1.542969 -11.070312 C 1.921875 -11.292969 2.335938 -11.402344 2.789062 -11.402344 Z M 2.789062 -10.914062 C 2.425781 -10.914062 2.09375 -10.828125 1.789062 -10.648438 C 1.488281 -10.472656 1.246094 -10.230469 1.066406 -9.925781 C 0.890625 -9.625 0.800781 -9.292969 0.800781 -8.929688 L 0.800781 0 L 0.558594 0 L 0.558594 -0.246094 L 2.789062 -0.246094 L 2.789062 0 L 2.546875 0 L 2.546875 -9.171875 L 5.265625 -9.171875 L 5.265625 0 L 5.023438 0 L 5.023438 -0.246094 L 7.253906 -0.246094 L 7.253906 0 L 7.011719 0 L 7.011719 -9.171875 L 9.730469 -9.171875 L 9.730469 0 L 9.484375 0 L 9.484375 -0.246094 L 11.71875 -0.246094 L 11.71875 0 L 11.472656 0 L 11.472656 -8.929688 C 11.472656 -9.292969 11.386719 -9.625 11.207031 -9.925781 C 11.027344 -10.230469 10.789062 -10.472656 10.484375 -10.648438 C 10.183594 -10.828125 9.851562 -10.914062 9.484375 -10.914062 Z M 2.789062 -10.914062 "/></g></g></g><g fill="#315b46" fill-opacity="1"><g transform="translate(261.393121, 215.56081)"><g><path d="M 11.960938 -11.160156 L 11.960938 -8.683594 L 2.789062 -8.683594 L 2.789062 -8.929688 L 3.035156 -8.929688 L 3.035156 -6.695312 L 2.789062 -6.695312 L 2.789062 -6.941406 L 11.960938 -6.941406 L 11.960938 -4.21875 L 2.789062 -4.21875 L 2.789062 -4.464844 L 3.035156 -4.464844 L 3.035156 -2.230469 L 2.789062 -2.230469 L 2.789062 -2.476562 L 11.960938 -2.476562 L 11.960938 0.246094 L 2.789062 0.246094 C 2.335938 0.246094 1.921875 0.132812 1.542969 -0.0898438 C 1.167969 -0.3125 0.867188 -0.609375 0.648438 -0.984375 C 0.425781 -1.363281 0.3125 -1.777344 0.3125 -2.230469 L 0.3125 -8.929688 C 0.3125 -9.382812 0.425781 -9.796875 0.648438 -10.175781 C 0.867188 -10.550781 1.167969 -10.847656 1.542969 -11.070312 C 1.921875 -11.292969 2.335938 -11.402344 2.789062 -11.402344 L 11.960938 -11.402344 Z M 11.472656 -11.160156 L 11.71875 -11.160156 L 11.71875 -10.914062 L 2.789062 -10.914062 C 2.425781 -10.914062 2.09375 -10.828125 1.789062 -10.648438 C 1.488281 -10.472656 1.246094 -10.230469 1.066406 -9.925781 C 0.890625 -9.625 0.800781 -9.292969 0.800781 -8.929688 L 0.800781 -2.230469 C 0.800781 -1.867188 0.890625 -1.535156 1.066406 -1.234375 C 1.246094 -0.929688 1.488281 -0.6875 1.789062 -0.511719 C 2.09375 -0.332031 2.425781 -0.246094 2.789062 -0.246094 L 11.71875 -0.246094 L 11.71875 0 L 11.472656 0 L 11.472656 -2.230469 L 11.71875 -2.230469 L 11.71875 -1.988281 L 2.546875 -1.988281 L 2.546875 -4.707031 L 11.71875 -4.707031 L 11.71875 -4.464844 L 11.472656 -4.464844 L 11.472656 -6.695312 L 11.71875 -6.695312 L 11.71875 -6.453125 L 2.546875 -6.453125 L 2.546875 -9.171875 L 11.71875 -9.171875 L 11.71875 -8.929688 L 11.472656 -8.929688 Z M 11.472656 -11.160156 "/></g></g></g><g fill="#315b46" fill-opacity="1"><g transform="translate(280.571643, 215.56081)"><g><path d="M 9.484375 0.246094 L 0.3125 0.246094 L 0.3125 -11.402344 L 9.484375 -11.402344 C 9.941406 -11.402344 10.355469 -11.292969 10.734375 -11.070312 C 11.109375 -10.847656 11.40625 -10.550781 11.628906 -10.175781 C 11.851562 -9.796875 11.960938 -9.382812 11.960938 -8.929688 L 11.960938 -2.230469 C 11.960938 -1.777344 11.851562 -1.363281 11.628906 -0.984375 C 11.40625 -0.609375 11.109375 -0.3125 10.734375 -0.0898438 C 10.355469 0.132812 9.941406 0.246094 9.484375 0.246094 Z M 9.484375 -0.246094 C 9.851562 -0.246094 10.183594 -0.332031 10.484375 -0.511719 C 10.789062 -0.6875 11.027344 -0.929688 11.207031 -1.234375 C 11.386719 -1.535156 11.472656 -1.867188 11.472656 -2.230469 L 11.472656 -8.929688 C 11.472656 -9.292969 11.386719 -9.625 11.207031 -9.925781 C 11.027344 -10.230469 10.789062 -10.472656 10.484375 -10.648438 C 10.183594 -10.828125 9.851562 -10.914062 9.484375 -10.914062 L 0.558594 -10.914062 L 0.558594 -11.160156 L 0.800781 -11.160156 L 0.800781 0 L 0.558594 0 L 0.558594 -0.246094 Z M 3.035156 -8.929688 L 3.035156 -2.230469 L 2.789062 -2.230469 L 2.789062 -2.476562 L 9.484375 -2.476562 L 9.484375 -2.230469 L 9.242188 -2.230469 L 9.242188 -8.929688 L 9.484375 -8.929688 L 9.484375 -8.683594 L 2.789062 -8.683594 L 2.789062 -8.929688 Z M 2.546875 -9.171875 L 9.730469 -9.171875 L 9.730469 -1.988281 L 2.546875 -1.988281 Z M 2.546875 -9.171875 "/></g></g></g><g fill="#315b46" fill-opacity="1"><g transform="translate(299.750166, 215.56081)"><g><path d="M 11.71875 0.246094 L 0.3125 0.246094 L 0.3125 -2.476562 L 5.023438 -2.476562 L 5.023438 -2.230469 L 4.777344 -2.230469 L 4.777344 -8.929688 L 5.023438 -8.929688 L 5.023438 -8.683594 L 0.3125 -8.683594 L 0.3125 -11.402344 L 11.960938 -11.402344 L 11.960938 -8.683594 L 7.253906 -8.683594 L 7.253906 -8.929688 L 7.5 -8.929688 L 7.5 -2.230469 L 7.253906 -2.230469 L 7.253906 -2.476562 L 11.960938 -2.476562 L 11.960938 0.246094 Z M 11.71875 -0.246094 L 11.71875 0 L 11.472656 0 L 11.472656 -2.230469 L 11.71875 -2.230469 L 11.71875 -1.988281 L 7.011719 -1.988281 L 7.011719 -9.171875 L 11.71875 -9.171875 L 11.71875 -8.929688 L 11.472656 -8.929688 L 11.472656 -11.160156 L 11.71875 -11.160156 L 11.71875 -10.914062 L 0.558594 -10.914062 L 0.558594 -11.160156 L 0.800781 -11.160156 L 0.800781 -8.929688 L 0.558594 -8.929688 L 0.558594 -9.171875 L 5.265625 -9.171875 L 5.265625 -1.988281 L 0.558594 -1.988281 L 0.558594 -2.230469 L 0.800781 -2.230469 L 0.800781 0 L 0.558594 0 L 0.558594 -0.246094 Z M 11.71875 -0.246094 "/></g></g></g><g fill="#315b46" fill-opacity="1"><g transform="translate(318.928688, 215.56081)"><g><path d="M 2.789062 -11.402344 L 9.484375 -11.402344 C 9.941406 -11.402344 10.355469 -11.292969 10.734375 -11.070312 C 11.109375 -10.847656 11.40625 -10.550781 11.628906 -10.175781 C 11.851562 -9.796875 11.960938 -9.382812 11.960938 -8.929688 L 11.960938 0.246094 L 9.242188 0.246094 L 9.242188 -4.464844 L 9.484375 -4.464844 L 9.484375 -4.21875 L 2.789062 -4.21875 L 2.789062 -4.464844 L 3.035156 -4.464844 L 3.035156 0.246094 L 0.3125 0.246094 L 0.3125 -8.929688 C 0.3125 -9.382812 0.425781 -9.796875 0.648438 -10.175781 C 0.867188 -10.550781 1.167969 -10.847656 1.542969 -11.070312 C 1.921875 -11.292969 2.335938 -11.402344 2.789062 -11.402344 Z M 2.789062 -10.914062 C 2.425781 -10.914062 2.09375 -10.828125 1.789062 -10.648438 C 1.488281 -10.472656 1.246094 -10.230469 1.066406 -9.925781 C 0.890625 -9.625 0.800781 -9.292969 0.800781 -8.929688 L 0.800781 0 L 0.558594 0 L 0.558594 -0.246094 L 2.789062 -0.246094 L 2.789062 0 L 2.546875 0 L 2.546875 -4.707031 L 9.730469 -4.707031 L 9.730469 0 L 9.484375 0 L 9.484375 -0.246094 L 11.71875 -0.246094 L 11.71875 0 L 11.472656 0 L 11.472656 -8.929688 C 11.472656 -9.292969 11.386719 -9.625 11.207031 -9.925781 C 11.027344 -10.230469 10.789062 -10.472656 10.484375 -10.648438 C 10.183594 -10.828125 9.851562 -10.914062 9.484375 -10.914062 Z M 3.035156 -8.929688 L 3.035156 -6.695312 L 2.789062 -6.695312 L 2.789062 -6.941406 L 9.484375 -6.941406 L 9.484375 -6.695312 L 9.242188 -6.695312 L 9.242188 -8.929688 L 9.484375 -8.929688 L 9.484375 -8.683594 L 2.789062 -8.683594 L 2.789062 -8.929688 Z M 2.546875 -9.171875 L 9.730469 -9.171875 L 9.730469 -6.453125 L 2.546875 -6.453125 Z M 2.546875 -9.171875 "/></g></g></g><g fill="#efecce" fill-opacity="1"><g transform="translate(242.214598, 215.56081)"><g><path d="M 2.796875 -11.15625 L 9.484375 -11.15625 C 9.898438 -11.15625 10.273438 -11.054688 10.609375 -10.859375 C 10.953125 -10.660156 11.222656 -10.390625 11.421875 -10.046875 C 11.617188 -9.710938 11.71875 -9.34375 11.71875 -8.9375 L 11.71875 0 L 9.484375 0 L 9.484375 -8.9375 L 7.25 -8.9375 L 7.25 0 L 5.015625 0 L 5.015625 -8.9375 L 2.796875 -8.9375 L 2.796875 0 L 0.5625 0 L 0.5625 -8.9375 C 0.5625 -9.34375 0.660156 -9.710938 0.859375 -10.046875 C 1.054688 -10.390625 1.320312 -10.660156 1.65625 -10.859375 C 2 -11.054688 2.378906 -11.15625 2.796875 -11.15625 Z M 2.796875 -11.15625 "/></g></g></g><g fill="#efecce" fill-opacity="1"><g transform="translate(261.393121, 215.56081)"><g><path d="M 11.71875 -11.15625 L 11.71875 -8.9375 L 2.796875 -8.9375 L 2.796875 -6.703125 L 11.71875 -6.703125 L 11.71875 -4.46875 L 2.796875 -4.46875 L 2.796875 -2.234375 L 11.71875 -2.234375 L 11.71875 0 L 2.796875 0 C 2.378906 0 2 -0.0976562 1.65625 -0.296875 C 1.320312 -0.492188 1.054688 -0.765625 0.859375 -1.109375 C 0.660156 -1.453125 0.5625 -1.828125 0.5625 -2.234375 L 0.5625 -8.9375 C 0.5625 -9.34375 0.660156 -9.710938 0.859375 -10.046875 C 1.054688 -10.390625 1.320312 -10.660156 1.65625 -10.859375 C 2 -11.054688 2.378906 -11.15625 2.796875 -11.15625 Z M 11.71875 -11.15625 "/></g></g></g><g fill="#efecce" fill-opacity="1"><g transform="translate(280.571643, 215.56081)"><g><path d="M 9.484375 0 L 0.5625 0 L 0.5625 -11.15625 L 9.484375 -11.15625 C 9.898438 -11.15625 10.273438 -11.054688 10.609375 -10.859375 C 10.953125 -10.660156 11.222656 -10.390625 11.421875 -10.046875 C 11.617188 -9.710938 11.71875 -9.34375 11.71875 -8.9375 L 11.71875 -2.234375 C 11.71875 -1.828125 11.617188 -1.453125 11.421875 -1.109375 C 11.222656 -0.765625 10.953125 -0.492188 10.609375 -0.296875 C 10.273438 -0.0976562 9.898438 0 9.484375 0 Z M 2.796875 -8.9375 L 2.796875 -2.234375 L 9.484375 -2.234375 L 9.484375 -8.9375 Z M 2.796875 -8.9375 "/></g></g></g><g fill="#efecce" fill-opacity="1"><g transform="translate(299.750166, 215.56081)"><g><path d="M 11.71875 0 L 0.5625 0 L 0.5625 -2.234375 L 5.015625 -2.234375 L 5.015625 -8.9375 L 0.5625 -8.9375 L 0.5625 -11.15625 L 11.71875 -11.15625 L 11.71875 -8.9375 L 7.25 -8.9375 L 7.25 -2.234375 L 11.71875 -2.234375 Z M 11.71875 0 "/></g></g></g><g fill="#efecce" fill-opacity="1"><g transform="translate(318.928688, 215.56081)"><g><path d="M 2.796875 -11.15625 L 9.484375 -11.15625 C 9.898438 -11.15625 10.273438 -11.054688 10.609375 -10.859375 C 10.953125 -10.660156 11.222656 -10.390625 11.421875 -10.046875 C 11.617188 -9.710938 11.71875 -9.34375 11.71875 -8.9375 L 11.71875 0 L 9.484375 0 L 9.484375 -4.46875 L 2.796875 -4.46875 L 2.796875 0 L 0.5625 0 L 0.5625 -8.9375 C 0.5625 -9.34375 0.660156 -9.710938 0.859375 -10.046875 C 1.054688 -10.390625 1.320312 -10.660156 1.65625 -10.859375 C 2 -11.054688 2.378906 -11.15625 2.796875 -11.15625 Z M 2.796875 -8.9375 L 2.796875 -6.703125 L 9.484375 -6.703125 L 9.484375 -8.9375 Z M 2.796875 -8.9375 "/></g></g></g></svg>